<?xml version="1.0" encoding="UTF-8"?>
<svg id="Layer_2" data-name="Layer 2" xmlns="http://www.w3.org/2000/svg"
  xmlns:xlink="http://www.w3.org/1999/xlink" viewBox="0 0 1190.55 841.89">
  <defs>
    <style>
      .cls-1 {
      fill: none;
      }

      .cls-2 {
      fill: #ee3124;
      }

      .cls-3 {
      clip-path: url(#clippath);
      }
    </style>
    <clipPath id="clippath">
      <rect class="cls-1" y="0" width="1190.55" height="841.89" />
    </clipPath>
  </defs>
  <g id="Capa_1" data-name="Capa 1">
    <g class="cls-3">
      <g>
        <path class="cls-2"
          d="M989.28,470.4c.07.04.15.06.23.06s.16-.02.23-.06c.15-.08.23-.24.23-.41l.02-29.32c0-.17-.09-.32-.23-.41s-.32-.08-.47,0l-25.41,14.67c-.15.08-.23.24-.23.41s.09.32.23.41l25.39,14.65ZM989.07,441.49l-.02,27.69-23.98-13.84,24-13.85Z" />
        <path class="cls-2"
          d="M125.87,499.8c.08,0,.16-.02.23-.06.15-.08.23-.24.23-.41l.02-29.32c0-.17-.09-.32-.23-.41s-.32-.08-.47,0l-25.41,14.67c-.15.08-.23.24-.23.41s.09.32.23.41l25.39,14.65c.07.04.15.06.23.06ZM125.4,498.52l-23.98-13.84,24-13.85-.02,27.69Z" />
        <path class="cls-2"
          d="M176.44,411.75c.07.04.15.06.23.06s.16-.02.23-.06l25.41-14.66c.15-.08.23-.24.24-.41,0-.17-.09-.32-.23-.41l-25.4-14.79c-.15-.08-.33-.09-.47,0l-25.4,14.83c-.14.08-.23.24-.23.41s.09.32.24.41l25.39,14.61ZM176.69,382.44l24.46,14.24-24.47,14.12-24.46-14.08,24.47-14.28Z" />
        <path class="cls-2"
          d="M75.08,558.46c.08,0,.16-.02.23-.06.15-.08.23-.24.23-.41v-29.17s25.17-14.52,25.17-14.52c.16-.1.25-.28.23-.45.03-.19-.05-.39-.23-.49l-25.41-14.65c-.14-.08-.32-.08-.47,0-.15.08-.23.24-.23.41v29.17s-25.17,14.52-25.17,14.52c-.18.1-.26.3-.23.49-.02.18.07.36.23.45l25.4,14.66c.07.04.15.06.23.06ZM99.66,513.82l-24.1,13.91v-27.82s24.1,13.9,24.1,13.9ZM74.61,557.18l-24.1-13.91,24.11-13.9v27.82Z" />
        <path class="cls-2"
          d="M557.46,485.19c.07.04.15.06.23.06s.16-.02.23-.06c.15-.08.23-.24.23-.41l.02-29.32c0-.17-.09-.32-.23-.41s-.32-.08-.47,0l-25.41,14.67c-.15.08-.23.24-.23.41s.09.32.23.41l25.39,14.65ZM557.24,456.27l-.02,27.69-23.98-13.84,24-13.85Z" />
        <path class="cls-2"
          d="M49.44,221.21l25.17,14.53v29.07c0,.17.09.32.23.41.07.04.15.06.23.06s.16-.02.23-.06l25.41-14.67c.15-.08.23-.24.23-.41s-.09-.32-.23-.41l-25.17-14.53v-29.07c0-.17-.09-.32-.23-.41-.15-.08-.32-.08-.47,0l-25.41,14.67c-.15.08-.23.24-.23.41s.09.32.23.41ZM75.55,264v-27.71l24,13.85-24,13.86ZM74.61,206.95v27.71l-24-13.86,24-13.85Z" />
        <path class="cls-2"
          d="M862.28,133.2c.07.04.15.06.23.06s.16-.02.23-.06c.15-.08.23-.24.23-.41l.02-29.32c0-.17-.09-.32-.23-.41s-.32-.08-.47,0l-25.41,14.67c-.15.08-.23.24-.23.41s.09.32.23.41l25.39,14.65ZM862.06,104.29l-.02,27.69-23.98-13.84,24-13.85Z" />
        <path class="cls-2"
          d="M430.45,147.99c.07.04.15.06.23.06s.16-.02.23-.06c.15-.08.23-.24.23-.41l.02-29.32c0-.17-.09-.32-.23-.41s-.32-.08-.47,0l-25.41,14.67c-.15.08-.23.24-.23.41s.09.32.23.41l25.39,14.65ZM430.23,119.08l-.02,27.69-23.98-13.84,24-13.85Z" />
        <path class="cls-2"
          d="M125.43,88.99s0,.06.02.09c0,.03.02.05.04.08.01.03.03.05.05.07.02.02.05.04.07.06.02.01.03.03.04.04l25.4,14.66s.01,0,.02,0c.07.03.14.06.21.06,0,0,0,0,0,0,0,0,0,0,0,0,0,0,0,0,0,0,.07,0,.14-.02.2-.05.02-.01.04-.03.06-.04.04-.03.08-.06.11-.1.01-.01.03-.02.04-.04,0-.01,0-.02.01-.04,0-.02.01-.04.02-.06.01-.04.02-.08.02-.12,0,0,0-.01,0-.02v-29.33c0-.17-.09-.32-.23-.41l-25.4-14.67c-.15-.08-.32-.08-.47,0-.15.08-.23.24-.23.41v29.33s.02.04.02.06ZM150.81,74.54v28.24l-24.45-14.12v-28.25s24.45,14.12,24.45,14.12Z" />
        <path class="cls-2"
          d="M100.25,104.01c.07.04.15.06.23.06s.16-.02.23-.06c.15-.08.23-.24.23-.41v-29.33c0-.17-.09-.32-.24-.41-.15-.08-.32-.08-.47,0l-25.4,14.67c-.15.08-.23.24-.23.41s.09.32.23.41l25.4,14.67ZM100.01,75.08v27.71s-23.99-13.85-23.99-13.85l23.99-13.85Z" />
        <path class="cls-2"
          d="M151.05,16.01c.07.04.15.06.23.06s.16-.02.23-.06l50.81-29.34c.15-.08.23-.24.23-.41l-.03-58.65c0-.26-.21-.47-.47-.47h0c-.26,0-.47.21-.47.47l.03,58.37-49.87,28.79V-13.46l25.17-14.53c.15-.08.23-.24.23-.41v-58.66c0-.26-.21-.47-.47-.47s-.47.21-.47.47V-28.67s-25.17,14.53-25.17,14.53c-.15.08-.23.24-.23.41V15.6c0,.17.09.32.23.41Z" />
        <path class="cls-2"
          d="M1116.81,777.55c-.15-.08-.32-.08-.47,0l-25.41,14.67c-.15.08-.23.24-.23.41s.09.32.23.41l25.39,14.65c.07.04.15.06.23.06s.16-.02.23-.06c.15-.08.23-.24.23-.41l.02-29.32c0-.17-.09-.32-.23-.41ZM1116.09,806.47l-23.98-13.84,24-13.85-.02,27.69Z" />
        <path class="cls-2"
          d="M1116.81,836.22l-25.4-14.67c-.15-.08-.32-.08-.47,0l-50.8,29.33s-.01.01-.02.02c-.02.01-.03.02-.05.04-.02.01-.03.03-.05.05-.01.02-.03.03-.04.05,0,0-.01.01-.02.02,0,0,0,.02,0,.03,0,.02-.02.04-.02.06,0,.02-.01.04-.02.06,0,.02,0,.04,0,.06,0,0,0,.02,0,.03v29.06s-50.59,29.2-50.59,29.2c-.15.08-.23.24-.23.41s.09.32.24.41l25.42,14.66c.07.04.15.06.23.06s.16-.02.23-.06l50.67-29.25c.12-.03.23-.09.3-.21.04-.07.06-.15.06-.23,0-.02.01-.03.01-.05v-29.07l50.58-29.18c.15-.08.23-.24.23-.41s-.09-.32-.23-.41ZM1065.29,894.51l-24.45-14.17v-28.24s24.45,14.11,24.45,14.11v28.3ZM1014.96,924.07l-24.48-14.12,49.89-28.79,24.41,14.14-49.82,28.77ZM1065.76,865.4l-24.45-14.11,49.86-28.79,24.46,14.12-49.88,28.78Z" />
        <path class="cls-2"
          d="M1294.83,763.29s-.02-.06-.03-.09c0,0,0-.02,0-.03-.01-.02-.03-.03-.04-.04-.02-.03-.04-.05-.06-.07-.02-.02-.05-.04-.08-.05-.03-.01-.05-.03-.08-.04-.03-.01-.06-.02-.1-.02-.02,0-.04-.01-.06-.01,0,0-.02,0-.03,0-.03,0-.06.01-.09.02-.03,0-.06.02-.09.03,0,0-.02,0-.03,0l-75.97,43.86-50.34-29.06v-29.06c0-.08-.02-.15-.06-.21,0-.02-.02-.03-.03-.05-.03-.05-.07-.08-.12-.12-.01,0-.02-.02-.03-.03l-50.56-29.19v-28.25s50.08,28.81,50.08,28.81h0s0,0,0,0h0c.07.04.15.06.23.06h0s.02,0,.03,0c.07,0,.14-.02.2-.05,0,0,0,0,0,0l25.41-14.67c.15-.08.23-.24.23-.41v-58.28l25.15-14.54c.15-.08.23-.24.23-.41s-.09-.32-.23-.41l-25.38-14.66c-.15-.08-.32-.08-.47,0-.15.08-.23.24-.23.41v28.52l-24.7-14.26s-.02,0-.03,0c-.03-.01-.06-.02-.09-.03-.03,0-.06-.02-.09-.02,0,0-.02,0-.03,0-.02,0-.04,0-.06.01-.03,0-.06,0-.09.02-.03,0-.05.02-.08.04-.03.01-.05.03-.07.05-.02.02-.04.05-.06.07-.01.02-.03.03-.04.04,0,0,0,.02,0,.03-.01.03-.02.06-.03.09,0,.03-.02.06-.02.09,0,0,0,.02,0,.03v57.86l-49.86-28.78v-28.24c12.09,6.98,23.96,13.83,24.66,14.23.07.04.15.06.23.06s.16-.02.23-.06c.15-.08.24-.24.24-.41v-29.01l25.21-14.57s0,0,.02-.01l25.1-14.49,50.37,29.08v28.75l-25.17,14.53c-.22.13-.3.42-.17.64.09.15.25.23.41.23.08,0,.16-.02.23-.06l24.7-14.26v28.52c0,.26.21.47.47.47s.47-.21.47-.47v-58.39l24.46-14.12v87.18c0,.26.21.47.47.47s.47-.21.47-.47v-58.39l25.17-14.53c.15-.08.23-.24.23-.41v-58.66c0-.26-.21-.47-.47-.47s-.47.21-.47.47v58.39s-24.46,14.13-24.46,14.13v-28.52s0-.02,0-.03c0-.02,0-.04,0-.06,0-.02,0-.04-.02-.06,0-.02-.01-.04-.02-.06,0,0,0-.02,0-.03s-.01-.01-.02-.02c-.01-.02-.02-.03-.04-.05-.01-.02-.03-.03-.05-.05-.02-.01-.03-.03-.05-.04,0,0-.01-.01-.02-.02l-25.29-14.71c-.11-.06-.23-.08-.35-.05l-24.5-14.14,50.12-28.98h0s.03-.03.04-.04c.03-.02.05-.04.07-.06.01-.02.03-.03.04-.05,0,0,.01,0,.02-.02,0,0,0-.02,0-.03,0-.02.02-.04.02-.06,0-.02.01-.04.02-.06,0-.02,0-.04,0-.06,0,0,0-.02,0-.03v-28.46s24.67,14.25,24.67,14.25c.07.04.15.06.23.06.16,0,.32-.08.41-.23.13-.22.05-.51-.17-.64l-25.16-14.52v-28.25s24.66,14.25,24.66,14.25c.07.04.15.06.23.06.16,0,.32-.08.41-.23.13-.22.05-.51-.17-.64l-25.14-14.52-.02-57.59,24.69,14.26c.07.04.15.06.23.06.16,0,.32-.08.41-.23.13-.22.05-.51-.17-.64l-50.07-28.91,24.46-14.12,25.18,14.52c.07.04.15.06.23.06.16,0,.32-.08.41-.23.13-.22.05-.51-.17-.64l-25.42-14.66s-.04-.01-.05-.02c-.03-.01-.06-.02-.09-.03-.03,0-.06,0-.09,0-.03,0-.05,0-.08,0-.03,0-.06.02-.1.03-.02,0-.04,0-.05.02l-25.4,14.67s-.01.01-.02.02c-.03.02-.05.04-.07.06,0,0,0,0,0,0h0s-.04.04-.05.06c0,0-.01.01-.02.02,0,.01,0,.03-.01.04,0,.01-.01.03-.02.04,0,.02-.01.04-.01.06,0,.02,0,.04,0,.06,0,.02,0,.03,0,.05v57.84l-24.46-14.12v-58.4s0-.02,0-.03c0-.02,0-.04,0-.06,0-.02,0-.04-.02-.06,0-.02-.01-.04-.02-.06,0,0,0-.02,0-.03,0,0-.01-.01-.02-.02-.01-.02-.02-.03-.04-.05-.01-.02-.03-.03-.05-.05s-.03-.03-.05-.04c0,0-.01-.01-.02-.02l-76.01-43.89v-28.73l50.62-29.23c.07-.04.12-.1.17-.17,0,0,0,0,0,0,.04-.07.05-.14.06-.21,0,0,0-.01,0-.02l-.03-58.42,50.4-29.1c.12-.03.23-.09.3-.21.04-.07.06-.15.06-.23,0-.02.01-.03.01-.05v-29.07l24.47-14.12v57.62s-50.52,29.17-50.52,29.17c0,0-.01.01-.02.02-.02.01-.03.02-.05.04-.02.01-.03.03-.05.05-.01.02-.03.03-.04.05,0,0-.01.01-.02.02s0,.02,0,.03c0,.02-.02.04-.02.06,0,.02-.01.04-.02.06,0,.02,0,.04,0,.06,0,0,0,.02,0,.03v58.39s-25.17,14.53-25.17,14.53c0,0,0,.01-.02.02-.06.04-.12.09-.15.15,0,0,0,0,0,0h0c-.04.07-.05.14-.06.21,0,0,0,.01,0,.02v29.33c0,.17.09.32.23.41l25.4,14.67s.01,0,.02,0l25.38,14.66c.07.04.15.06.23.06s.16-.02.23-.06l25.4-14.67c.15-.08.23-.24.23-.41s-.09-.32-.23-.41l-25.4-14.67c-.15-.08-.32-.08-.47,0l-24.7,14.26v-28.26s24.93-14.38,24.93-14.38l50.57,29.2c.07.04.15.06.23.06.16,0,.32-.08.41-.23.13-.22.05-.51-.17-.64l-50.73-29.29s-.06-.04-.1-.06l-25.14-14.51v-57.58s24.47,14.13,24.47,14.13v29.03s0,.02,0,.03c0,.03.01.06.02.09,0,.03.02.06.03.09,0,0,0,.02,0,.03,0,.01.02.02.03.03.03.05.07.09.12.12.02.01.03.02.05.03.06.03.13.06.21.06h0s0,0,0,0c.08,0,.15-.02.21-.06,0,0,.02,0,.02,0l25.15-14.5,24.47,14.13-24.68,14.23c-.22.13-.3.42-.17.64.09.15.24.23.41.23.08,0,.16-.02.23-.06l25.42-14.66c.22-.13.3-.42.17-.64,0,0,0,0,0,0v-146.41s0,0,0,0c0,0,0,0,0,0,0,0,0,0,0,0,0-.07-.02-.14-.05-.2-.01-.02-.02-.04-.04-.06-.03-.04-.07-.08-.11-.11-.01,0-.02-.02-.03-.03l-25.4-14.67c-.15-.08-.32-.08-.47,0l-50.8,29.33s-.01.01-.02.02c-.02.01-.03.02-.05.04-.02.01-.03.03-.05.05-.01.02-.03.03-.04.05,0,0-.01.01-.02.02s0,.02,0,.03c0,.02-.02.04-.02.06,0,.02-.01.04-.02.06,0,.02,0,.04,0,.06,0,0,0,.02,0,.03v29.06s-50.59,29.2-50.59,29.2c-.15.08-.23.24-.23.41,0,.09.03.17.07.24v58.15s-24.51,14.16-24.51,14.16v-28.44s0-.01,0-.02c0-.07-.02-.14-.06-.21h0s0,0,0,0c-.04-.07-.09-.11-.15-.15,0,0,0-.01-.02-.02l-50.13-29.02,50.16-29h0s.03-.03.04-.04c.03-.02.05-.04.07-.06.01-.02.03-.03.04-.05,0,0,.01,0,.02-.02,0,0,0-.02,0-.03,0-.02.02-.04.02-.06,0-.02.01-.04.02-.06,0-.02,0-.04,0-.06,0,0,0-.02,0-.03v-28.46s24.67,14.25,24.67,14.25c.07.04.15.06.23.06h0s0,0,0,0c0,0,.02,0,.03,0,.07,0,.14-.02.21-.05,0,0,0,0,0,0l25.4-14.67c.15-.08.23-.24.23-.41v-57.84l24.7,14.25c.07.04.15.06.23.06h0s.02,0,.03,0c.07,0,.14-.02.2-.05,0,0,0,0,0,0l25.4-14.66c.15-.08.23-.24.23-.41v-58.41s50.58-29.18,50.58-29.18c.22-.13.3-.42.17-.64-.13-.22-.42-.3-.64-.17l-50.58,29.18-24.47-14.11,24.69-14.25s.02-.01.03-.02l25.38-14.66c.09-.05.15-.14.19-.24.05-.08.09-.16.09-.26v-87.65l25.17-14.55c.22-.13.3-.42.17-.64-.13-.22-.42-.3-.64-.17l-25.4,14.69s-.03.03-.04.04c-.03.02-.05.04-.07.06-.02.02-.03.05-.05.07-.02.03-.03.05-.04.08s-.01.06-.02.09c0,.02-.01.04-.01.06V-14.71l-100.9-58.25c-.23-.13-.51-.05-.64.17-.13.22-.05.51.17.64l50.52,29.17V15.52s.01.03.01.04c0,.06.02.11.04.16,0,.02.02.04.03.05.04.06.09.12.16.16l24.7,14.22-24.7,14.26c-.07.04-.12.09-.16.16-.01.02-.02.04-.03.05-.02.05-.04.1-.04.16,0,.01-.01.02-.01.04v57.84s-24.46-14.11-24.46-14.11V.81s0-.03-.01-.04c0-.06-.02-.11-.04-.16,0-.02-.02-.04-.03-.05-.04-.06-.09-.11-.15-.15,0,0,0,0,0,0h0l-50.1-28.94,24.72-14.26c.22-.13.3-.42.17-.64s-.42-.3-.64-.17l-25.19,14.53-24.46-14.13,24.7-14.24c.22-.13.3-.42.17-.64s-.42-.3-.64-.17l-24.7,14.24v-28.22s25.17-14.54,25.17-14.54c.22-.13.3-.42.17-.64-.13-.22-.42-.3-.64-.17l-25.17,14.54-25.17-14.53s-.02,0-.03,0c-.03-.01-.06-.02-.09-.03-.03,0-.06-.02-.09-.02,0,0-.02,0-.03,0-.02,0-.04,0-.06.01-.03,0-.06,0-.09.02-.03.01-.05.02-.08.04-.03.01-.05.03-.07.05-.02.02-.04.05-.06.07-.01.02-.03.03-.04.04,0,0,0,.02,0,.03-.01.03-.02.06-.03.09,0,.03-.02.06-.02.09,0,.01,0,.02,0,.03V-28.79s-25.17,14.53-25.17,14.53c0,0-.01.01-.02.02-.06.04-.11.09-.15.15,0,0,0,0,0,0h0c-.04.07-.05.14-.06.21,0,0,0,.01,0,.02V15.48c0,.17.09.32.23.41l25.4,14.67s.01,0,.02,0l25.38,14.66c.07.04.15.06.23.06s.16-.02.23-.06l25.4-14.67c.15-.08.23-.24.23-.41s-.09-.32-.23-.41l-25.4-14.67c-.15-.08-.32-.08-.47,0l-24.7,14.26V1.07s24.93-14.38,24.93-14.38l50.34,29.06v57.56l-24.7-14.24s-.04-.01-.05-.02c-.03-.01-.06-.02-.09-.03-.03,0-.06,0-.09,0-.03,0-.06,0-.08,0-.03,0-.06.02-.1.03-.02,0-.04,0-.05.02l-25.4,14.67s-.01.01-.02.02c-.03.02-.05.04-.07.06,0,0,0,0,0,0,0,0,0,0,0,0-.02.02-.04.04-.05.06,0,0-.01.01-.02.02,0,.01,0,.03-.01.04,0,.02-.01.03-.02.05,0,.02-.01.04-.01.06,0,.02,0,.04,0,.05,0,.02,0,.03,0,.05v57.84l-24.46-14.12v-58.39s0-.02,0-.03c0-.02,0-.04,0-.06,0-.02,0-.04-.02-.06,0-.02-.01-.04-.02-.06,0,0,0-.02,0-.03,0,0-.01-.01-.02-.02-.01-.02-.02-.03-.04-.05-.01-.02-.03-.03-.05-.05-.02-.01-.03-.03-.05-.04,0,0-.01-.01-.02-.02l-75.97-43.86v-87.72s0-.04-.01-.06c0-.03,0-.06-.02-.09-.01-.03-.02-.06-.04-.08-.01-.03-.03-.05-.05-.07-.02-.03-.05-.05-.07-.07-.02-.01-.03-.03-.04-.04l-25.29-14.71c-.22-.13-.51-.05-.64.17-.13.22-.05.51.17.64l25.06,14.58V14.66l-24.46-14.12v-58.39c0-.26-.21-.47-.47-.47s-.47.21-.47.47v29.06l-25.17,14.53c-.07.04-.12.09-.16.16-.01.02-.02.04-.03.05-.02.05-.04.1-.04.16,0,.01-.01.02-.01.04V15.48c0,.17.09.32.23.41l25.17,14.53v28.79s-24.46,14.12-24.46,14.12v-28.51c0-.17-.09-.32-.24-.41-.15-.08-.32-.08-.47,0l-25.4,14.67c-.15.08-.23.24-.23.41s.09.32.23.41l25.17,14.53v29.01s.02.02.02.03c0,.03.01.06.02.09,0,.03.02.06.03.09,0,0,0,.02,0,.03,0,.01.02.02.03.03.03.05.07.09.12.12.02.01.03.02.05.03.06.03.13.06.21.06h0s0,0,0,0c.08,0,.15-.02.21-.06,0,0,.02,0,.02,0l50.79-29.29s0,0,0,0h0s.03-.03.05-.05c.02-.02.04-.03.06-.05.02-.02.03-.04.04-.06,0,0,.01,0,.02-.02,0-.01,0-.02.01-.03,0-.01.01-.03.02-.04,0-.02.02-.05.02-.07,0-.02,0-.05,0-.07,0,0,0-.01,0-.02v-28.52l49.86,28.79v28.25l-24.7-14.26s-.02,0-.03,0c-.02,0-.04-.02-.06-.02-.02,0-.04-.01-.06-.02-.02,0-.04,0-.06,0,0,0-.02,0-.03,0s-.02,0-.03,0c-.02,0-.04,0-.06,0-.02,0-.04,0-.06.02-.02,0-.04.01-.06.02,0,0-.02,0-.03,0l-75.97,43.86-50.34-29.06v-29.06c0-.08-.02-.15-.06-.21,0-.02-.02-.03-.03-.05-.03-.05-.07-.08-.12-.12-.01,0-.02-.02-.03-.03l-50.56-29.18v-28.25s50.08,28.81,50.08,28.81h0c.07.04.15.06.23.06h0s.02,0,.03,0c.07,0,.14-.02.2-.05,0,0,0,0,0,0l25.41-14.67c.15-.08.23-.24.23-.41V-28.25l25.15-14.54c.15-.08.23-.24.23-.41s-.09-.32-.23-.41l-25.38-14.66c-.15-.08-.32-.08-.47,0-.15.08-.23.24-.23.41v28.52l-24.7-14.26s-.02,0-.03,0c-.03-.01-.06-.02-.09-.03-.03,0-.06-.02-.09-.02,0,0-.02,0-.03,0-.02,0-.04,0-.06.01-.03,0-.06,0-.09.02-.03.01-.05.02-.08.04-.03.01-.05.03-.07.05-.02.02-.04.05-.06.07-.01.02-.03.03-.04.04,0,0,0,.02,0,.03-.01.03-.02.06-.03.09,0,.03-.02.06-.02.09,0,.01,0,.02,0,.03V14.67l-49.86-28.78v-28.24c12.09,6.98,23.96,13.83,24.66,14.23.07.04.15.06.23.06s.16-.02.23-.06c.15-.08.24-.24.24-.41v-29.01l25.21-14.57c.22-.13.3-.42.17-.64-.13-.22-.42-.3-.64-.17l-24.74,14.3v-28.57c0-.26-.21-.47-.47-.47s-.47.21-.47.47v28.52l-24.66-14.24s-.04-.01-.06-.02c-.03-.01-.06-.02-.09-.03-.03,0-.06,0-.09,0-.03,0-.06,0-.09,0-.03,0-.06.02-.09.03-.02,0-.04,0-.05.02l-25.4,14.69s-.03.03-.04.04c-.03.02-.05.04-.07.06-.02.02-.03.05-.05.07-.02.03-.03.05-.04.08s-.01.06-.02.09c0,.02-.01.04-.01.06v28.5l-100.91-58.25c-.23-.13-.51-.05-.64.17-.13.22-.05.51.17.64l101.38,58.52V0l-24.53-14.16c-.07-.08-.16-.14-.27-.16l-25.14-14.51c-.07-.08-.16-.13-.26-.15l-50.7-29.27c-.22-.13-.51-.05-.64.17-.13.22-.05.51.17.64l50.6,29.21V30.19s.01.03.01.04c0,.06.02.11.04.16,0,.02.02.04.03.05.04.06.09.12.16.16l24.7,14.22-24.7,14.26c-.07.04-.12.09-.16.16-.01.02-.02.04-.03.05-.02.05-.04.1-.04.16,0,.01-.01.02-.01.04v57.84s-24.46-14.11-24.46-14.11V15.48s0-.02-.01-.04c0-.06-.02-.11-.04-.16,0-.02-.02-.04-.03-.05-.04-.06-.09-.12-.15-.15,0,0,0,0,0,0h0l-50.1-28.94,24.72-14.26c.22-.13.3-.42.17-.64-.13-.22-.42-.3-.64-.17l-25.19,14.53-24.46-14.13,24.7-14.24c.22-.13.3-.42.17-.64s-.42-.3-.64-.17l-24.7,14.24v-28.22s25.17-14.54,25.17-14.54c.22-.13.3-.42.17-.64-.13-.22-.42-.3-.64-.17l-25.17,14.54-25.17-14.53s-.02,0-.03,0c-.03-.01-.06-.02-.09-.03-.03,0-.06-.02-.09-.02,0,0-.02,0-.03,0-.02,0-.04,0-.06.01-.03,0-.06,0-.09.02-.03.01-.05.02-.08.04-.03.01-.05.03-.07.05-.02.02-.04.05-.06.07-.01.02-.03.03-.04.04,0,0,0,.02,0,.03-.01.03-.02.06-.03.09,0,.03-.02.06-.02.09,0,.01,0,.02,0,.03V-14.12s-25.17,14.53-25.17,14.53c0,0-.01.01-.02.02-.06.04-.11.09-.15.15,0,0,0,0,0,0h0c-.04.07-.05.14-.06.21,0,0,0,.01,0,.02v29.33c0,.17.09.32.23.41l25.4,14.67s.01,0,.02,0l25.38,14.66c.07.04.15.06.23.06s.16-.02.23-.06l25.4-14.67c.15-.08.23-.24.23-.41s-.09-.32-.23-.41l-25.4-14.67c-.15-.08-.32-.08-.47,0l-24.7,14.26V15.75s24.93-14.38,24.93-14.38l50.34,29.06v57.56l-24.7-14.24s-.04-.01-.05-.02c-.03-.01-.06-.02-.09-.03-.03,0-.06,0-.09,0-.03,0-.06,0-.08,0-.03,0-.06.02-.1.03-.02,0-.04,0-.05.02l-25.4,14.67s-.01.01-.02.02c-.03.02-.05.04-.07.06,0,0,0,0,0,0,0,0,0,0,0,0-.02.02-.04.04-.05.06,0,0-.01.01-.02.02,0,.01,0,.03-.01.04,0,.01-.01.03-.02.04,0,.02-.01.04-.01.06,0,.02,0,.04,0,.06,0,.02,0,.03,0,.05v57.84l-24.46-14.12v-58.39s0-.02,0-.03c0-.02,0-.04,0-.06,0-.02,0-.04-.02-.06,0-.02-.01-.04-.02-.06,0,0,0-.02,0-.03,0,0-.01-.01-.02-.02-.01-.02-.02-.03-.04-.05-.01-.02-.03-.03-.05-.05-.02-.01-.03-.03-.05-.04,0,0-.01-.01-.02-.02l-75.97-43.86V1.09l50.57-29.2c.15-.08.23-.24.23-.41l-.03-58.65c0-.26-.21-.47-.47-.47h0c-.26,0-.47.21-.47.47l.03,58.37L583.58,0v-57.85s0-.04-.01-.06c0-.03,0-.06-.02-.09-.01-.03-.02-.06-.04-.08-.01-.03-.03-.05-.05-.07-.02-.02-.05-.04-.07-.06-.02-.01-.03-.03-.04-.04l-25.29-14.71c-.22-.13-.51-.05-.64.17s-.05.51.17.64l25.06,14.58V29.34l-24.46-14.12v-58.39c0-.26-.21-.47-.47-.47s-.47.21-.47.47V-14.12l-25.17,14.53h0s0,0,0,0c-.07.04-.11.09-.15.15-.01.02-.02.04-.03.05-.02.05-.04.1-.04.16,0,.01-.01.02-.01.04v29.33c0,.17.09.32.23.41l25.17,14.53v28.79s-24.46,14.12-24.46,14.12v-28.51c0-.17-.09-.32-.24-.41-.15-.08-.32-.08-.47,0l-25.4,14.67c-.15.08-.23.24-.23.41s.09.32.23.41l25.17,14.53v29.01s.02.02.02.03c0,.03.01.06.02.09,0,.03.02.06.03.09,0,0,0,.02,0,.03,0,.01.02.02.03.03.03.05.07.09.12.12.02.01.03.02.05.03.06.03.13.06.21.06h0s0,0,0,0c0,0,0,0,0,0,.08,0,.15-.02.21-.06,0,0,.02,0,.02,0l50.79-29.29s0,0,0,0h0s.03-.03.05-.05c.02-.02.04-.03.06-.05s.03-.04.05-.06c0,0,.01,0,.02-.02,0-.01,0-.02.01-.04,0-.01.01-.03.02-.04,0-.02.02-.05.02-.07,0-.02,0-.05,0-.07,0,0,0-.01,0-.02v-28.52l49.86,28.79v28.25l-24.7-14.26s-.02,0-.03,0c-.02,0-.04-.02-.06-.02-.02,0-.04-.01-.06-.02-.02,0-.04,0-.06,0,0,0-.02,0-.03,0s-.02,0-.03,0c-.02,0-.04,0-.06,0-.02,0-.04,0-.06.02-.02,0-.04.01-.06.02,0,0-.02,0-.03,0l-75.97,43.86-50.34-29.06v-29.06c0-.08-.02-.15-.06-.21,0-.02-.02-.03-.03-.05-.03-.05-.07-.08-.12-.12-.01,0-.02-.02-.03-.03l-50.56-29.18v-28.25s50.08,28.81,50.08,28.81h0s0,0,0,0h0c.07.04.15.06.23.06h0s0,0,0,0c.01,0,.02,0,.03,0,.07,0,.14-.02.2-.05,0,0,0,0,0,0l25.41-14.67c.15-.08.23-.24.23-.41V-13.58l25.15-14.54c.15-.08.23-.24.23-.41s-.09-.32-.23-.41l-25.38-14.66c-.15-.08-.32-.08-.47,0-.15.08-.23.24-.23.41V-14.66l-24.7-14.26s-.02,0-.03,0c-.03-.01-.06-.02-.09-.03-.03,0-.06-.02-.09-.02,0,0-.02,0-.03,0-.02,0-.04,0-.06.01-.03,0-.06,0-.09.02-.03.01-.05.02-.08.04-.03.01-.05.03-.07.05-.02.02-.04.05-.06.07-.01.02-.03.03-.04.04,0,0,0,.02,0,.03-.01.03-.02.06-.03.09,0,.03-.02.06-.02.09,0,.01,0,.02,0,.03V29.34L431.18.56v-28.24c12.09,6.98,23.96,13.83,24.66,14.23.07.04.15.06.23.06s.16-.02.23-.06c.15-.08.24-.24.24-.41v-29.01l25.21-14.57c.22-.13.3-.42.17-.64-.13-.22-.42-.3-.64-.17l-24.74,14.3v-28.57c0-.26-.21-.47-.47-.47s-.47.21-.47.47v28.52l-24.66-14.24s-.04-.01-.06-.02c-.03-.01-.06-.02-.09-.03-.03,0-.06,0-.09,0s-.06,0-.09,0c-.03,0-.06.02-.09.03-.02,0-.04,0-.05.02l-25.4,14.69s-.03.03-.04.04c-.03.02-.05.04-.07.06-.02.02-.03.05-.05.07-.02.03-.03.05-.04.08s-.01.06-.02.09c0,.02-.01.04-.01.06V-14.66l-100.91-58.25c-.22-.13-.51-.05-.64.17-.13.22-.05.51.17.64l101.38,58.52V14.67l-100.9-58.25c-.23-.13-.51-.05-.64.17-.13.22-.05.51.17.64l50.56,29.19v58.55s.01.03.01.04c0,.06.02.11.04.16,0,.02.02.04.03.05.04.06.09.12.16.16l24.7,14.22-24.7,14.26c-.07.04-.12.09-.16.16-.01.02-.02.04-.03.05-.02.05-.04.1-.04.16,0,.01-.01.02-.01.04v57.84s-24.46-14.11-24.46-14.11V30.27s0-.03-.01-.04c0-.06-.02-.11-.04-.16,0-.02-.02-.04-.03-.05-.04-.06-.09-.11-.15-.15,0,0,0,0,0,0h0L279.23.92l24.72-14.26c.22-.13.3-.42.17-.64s-.42-.3-.64-.17L278.29.38l-24.46-14.13,24.7-14.24c.22-.13.3-.42.17-.64-.13-.22-.42-.3-.64-.17l-24.7,14.24v-28.22s25.17-14.54,25.17-14.54c.22-.13.3-.42.17-.64-.13-.22-.42-.3-.64-.17l-25.17,14.54-24.47-14.13,50.09-28.92c.22-.13.3-.42.17-.64s-.42-.3-.64-.17l-50.8,29.33s-.01.01-.02.02c-.02.01-.03.02-.05.04-.02.01-.03.03-.05.05-.01.02-.03.03-.04.05,0,0-.01.01-.02.02s0,.02,0,.03c0,.02-.02.04-.02.06,0,.02-.01.04-.02.06,0,.02,0,.04,0,.06,0,0,0,.02,0,.03V.67s-25.17,14.53-25.17,14.53c0,0-.01.01-.02.02-.06.04-.11.09-.15.15,0,0,0,0,0,0h0c-.04.07-.05.14-.06.21,0,0,0,.01,0,.02v29.33c0,.17.09.32.23.41l25.4,14.67s.01,0,.02,0l25.38,14.66c.07.04.15.06.23.06s.16-.02.23-.06l25.4-14.67c.15-.08.23-.24.23-.41s-.09-.32-.23-.41l-25.4-14.67c-.15-.08-.32-.08-.47,0l-24.7,14.26v-28.26s24.93-14.38,24.93-14.38l50.34,29.06v57.56l-24.7-14.24s-.04-.01-.05-.02c-.03-.01-.06-.02-.09-.03-.03,0-.06,0-.09,0-.03,0-.05,0-.08,0-.03,0-.06.02-.1.03-.02,0-.04,0-.05.02l-25.4,14.67s-.01.01-.02.02c-.03.02-.05.04-.07.06,0,0,0,0,0,0h0s-.04.04-.05.06c0,0-.01.01-.02.02,0,.01,0,.03-.01.04,0,.01-.01.03-.02.04,0,.02-.01.04-.01.06,0,.02,0,.04,0,.06,0,.02,0,.03,0,.05v57.84l-75.5-43.59s-.02,0-.03,0c-.02,0-.04-.02-.06-.02-.02,0-.04-.01-.06-.02-.02,0-.04,0-.06,0,0,0-.02,0-.03,0s-.02,0-.03,0c-.02,0-.04,0-.06,0-.02,0-.04,0-.06.02-.02,0-.04.01-.06.02,0,0-.02,0-.03,0l-76.2,44c-.15.08-.23.24-.23.41s.09.32.23.41l25.41,14.67c.07.04.15.06.23.06s.16-.02.23-.06l50.56-29.2,75.73,43.72v28.71l-49.86,28.87v-28.52s0-.04-.01-.06c0-.03,0-.06-.02-.09-.01-.03-.02-.06-.04-.08-.01-.03-.03-.05-.05-.07-.02-.02-.05-.04-.07-.06-.02-.01-.03-.03-.04-.04l-25.42-14.7s-.02,0-.03,0c-.03-.01-.06-.02-.09-.03-.03,0-.06-.02-.09-.02-.01,0-.02,0-.03,0-.02,0-.04,0-.06.01-.03,0-.06,0-.09.02-.03.01-.06.02-.08.04-.02.01-.05.03-.07.05-.03.02-.05.05-.07.07-.01.02-.03.03-.04.04,0,0,0,.02,0,.03-.01.03-.02.06-.03.09,0,.03-.02.06-.02.09,0,.01,0,.02,0,.03l.02,58.42-24.87,14.36s-.06-.02-.09-.02c-.26,0-.47.21-.47.47v28.52l-24.66-14.24s-.04-.01-.06-.02c-.03-.01-.06-.02-.09-.03-.03,0-.06,0-.09,0s-.06,0-.09,0c-.03,0-.06.02-.09.03-.02,0-.04,0-.06.02l-25.4,14.69c-.22.13-.3.42-.17.64.04.07.1.13.17.17h0s49.33,28.46,50.77,29.3c.07.04.15.06.23.06s.16-.02.23-.06c.15-.08.24-.24.24-.41v-29.01l24.91-14.39s.02,0,.03,0c0,0,0,0,.01,0,0,0,0,0,0,0,0,0,0,0,0,0,.07,0,.14-.02.21-.06,0,0,.02,0,.02,0l25.18-14.54,50.34,29.06v28.67l-25.17,14.53c-.07.04-.12.09-.16.16-.01.02-.02.04-.03.05-.02.05-.04.1-.04.16,0,.01-.01.02-.01.04v29.33c0,.17.09.32.23.41l25.17,14.53v28.79s-25.17,14.53-25.17,14.53c-.02.01-.03.03-.04.04-.03.02-.05.04-.07.06-.02.02-.04.05-.05.07-.01.03-.03.05-.04.08-.01.03-.01.06-.02.09,0,.02-.01.04-.01.06v29.29s.02.02.02.03c0,.03.01.06.02.09,0,.03.02.06.03.09,0,0,0,.02,0,.03,0,.01.02.02.03.03.03.05.07.09.12.12.02.01.03.02.05.03.06.03.13.06.21.06h0s0,0,0,0c.08,0,.15-.02.21-.06,0,0,.02,0,.02,0l50.79-29.29s0,0,0,0h0s.03-.03.05-.05c.02-.02.04-.03.06-.05.02-.02.03-.04.04-.06,0,0,.01,0,.02-.02,0-.01,0-.02.01-.03,0-.01.01-.03.02-.04,0-.02.02-.05.02-.07,0-.02,0-.05,0-.07,0,0,0-.01,0-.02v-28.52l49.86,28.79v28.25l-24.7-14.26s-.02,0-.03,0c-.02,0-.04-.02-.06-.02-.02,0-.04-.01-.06-.02-.02,0-.04,0-.06,0,0,0-.02,0-.03,0s-.02,0-.03,0c-.02,0-.04,0-.06,0-.02,0-.04,0-.06.02-.02,0-.04.01-.06.02,0,0-.02,0-.03,0l-75.97,43.86-50.57-29.19c-.15-.08-.32-.08-.47,0l-25.4,14.66c-.15.08-.23.24-.23.41s.09.32.23.41l50,28.87-24.56,14.18c-.07.04-.12.09-.16.16-.01.02-.02.04-.03.05-.02.05-.04.1-.04.16,0,.01-.01.02-.01.04v87.87s-25.16,14.52-25.16,14.52c-.15.08-.23.24-.23.41s.09.32.23.41l25.4,14.67c.07.04.15.06.23.06s.16-.02.23-.06l25.4-14.67c.15-.08.23-.24.23-.41v-87.87s24.8-14.32,24.8-14.32l25.03,14.45v28.75l-25.13,14.55s-.03.03-.04.04c-.03.02-.05.04-.07.06-.02.02-.03.05-.05.07-.02.03-.03.05-.04.08-.01.03-.01.06-.02.09,0,.02-.01.04-.01.06v29.14c0,.21.13.38.32.44l-.08.16c.07.04.15.06.23.06s.16-.02.23-.06l50.77-29.31s0,0,0,0,0,0,0,0l.03-.02c.2-.11.27-.35.2-.55v-58.5s0-.02,0-.03c0-.02,0-.04,0-.06,0-.02,0-.04-.02-.06,0-.02-.01-.04-.02-.06,0,0,0-.02,0-.03s-.01-.01-.02-.02c-.01-.02-.02-.03-.04-.05-.01-.02-.03-.03-.05-.05-.02-.01-.03-.03-.05-.04,0,0-.01-.01-.02-.02l-24.69-14.25,49.85-28.79,24.93,14.39v28.79l-25.19,14.5s-.01.01-.02.02c-.02.01-.03.02-.05.04-.02.01-.03.03-.05.05-.01.02-.03.03-.04.05,0,0-.01.01-.02.02s0,.02,0,.03c0,.02-.02.04-.02.06,0,.02-.01.04-.02.06,0,.02,0,.04,0,.06,0,.01,0,.02,0,.03l.02,58.67s0,.03,0,.04c0,.16.08.31.23.4l76.01,43.88v28.75l-25.17,14.53c-.07.04-.12.09-.16.16-.01.02-.02.04-.03.05-.02.05-.04.1-.04.16,0,.01-.01.02-.01.04v29.33c0,.17.09.32.23.41l25.17,14.53v28.79s-24.46,14.12-24.46,14.12v-28.51c0-.17-.09-.32-.24-.41-.15-.08-.32-.08-.47,0l-25.4,14.67c-.15.08-.23.24-.23.41s.09.32.23.41l25.17,14.53v29.01s.02.02.02.03c0,.03.01.06.02.09,0,.03.02.06.03.09,0,0,0,.02,0,.03,0,.01.02.02.03.03.03.05.07.09.12.12.02.01.03.02.05.03.06.03.13.06.21.06h0s0,0,0,0c.08,0,.15-.02.21-.06,0,0,.02,0,.02,0l50.79-29.29s0,0,0,0h0s.03-.03.05-.05c.02-.02.04-.03.06-.05s.03-.04.05-.06c0,0,.01,0,.02-.02,0-.01,0-.02.01-.04,0-.01.01-.03.02-.04,0-.02.02-.05.02-.07,0-.02,0-.05,0-.07,0,0,0-.01,0-.02v-28.52l49.86,28.79v28.25l-24.7-14.26s-.02,0-.03,0c-.02,0-.04-.02-.06-.02-.02,0-.04-.01-.06-.02-.02,0-.04,0-.06,0,0,0-.02,0-.03,0s-.02,0-.03,0c-.02,0-.04,0-.06,0-.02,0-.04,0-.06.02-.02,0-.04.01-.06.02,0,0-.02,0-.03,0l-75.97,43.86-50.34-29.06v-29.06c0-.08-.02-.15-.06-.21,0-.02-.02-.03-.03-.05-.03-.05-.07-.08-.12-.12-.01,0-.02-.02-.03-.03l-50.56-29.19v-28.25s50.08,28.81,50.08,28.81h0s0,0,0,0h0c.07.04.15.06.23.06h0s.02,0,.03,0c.07,0,.14-.02.2-.05,0,0,0,0,0,0l25.41-14.67c.15-.08.23-.24.23-.41v-58.28l25.15-14.54c.15-.08.23-.24.23-.41s-.09-.32-.23-.41l-25.38-14.66c-.15-.08-.32-.08-.47,0-.15.08-.23.24-.23.41v28.52l-24.7-14.26s-.02,0-.03,0c-.03-.01-.06-.02-.09-.03-.03,0-.06-.02-.09-.02,0,0-.02,0-.03,0-.02,0-.04,0-.06.01-.03,0-.06,0-.09.02-.03.01-.05.02-.08.04-.03.01-.05.03-.07.05-.02.02-.04.05-.06.07-.01.02-.03.03-.04.04,0,0,0,.02,0,.03-.01.03-.02.06-.03.09,0,.03-.02.06-.02.09,0,0,0,.02,0,.03v57.86l-49.86-28.78v-29.05c0-.17-.09-.32-.24-.41l-25.4-14.66c-.15-.08-.32-.08-.47,0-.15.08-.23.24-.23.41v87.58l-50.57,29.2c-.15.08-.23.24-.23.41,0,.17.09.32.24.41l25.41,14.65c.07.04.15.06.23.06s.16-.02.23-.06l25.07-14.46,50.43,29.12v29.06s0,.03.01.04c0,.06.02.11.04.16,0,.02.02.04.03.05.04.06.09.12.16.16l101.37,58.53v29.06c0,.17.09.32.23.41l25.4,14.67c.07.04.15.06.23.06s.16-.02.23-.06c.15-.08.23-.24.23-.41v-58.67s0-.02,0-.03c0-.02,0-.04,0-.06,0-.02,0-.04-.02-.06,0-.02-.01-.04-.02-.06,0,0,0-.02,0-.03s-.01-.01-.02-.02c-.01-.02-.02-.03-.04-.05-.01-.02-.03-.03-.05-.05-.02-.01-.03-.03-.05-.04,0,0-.01-.01-.02-.02l-24.69-14.25,49.85-28.79,24.93,14.39v28.79l-25.19,14.5s-.01.01-.02.02c-.02.01-.03.02-.05.04-.02.01-.03.03-.05.05-.01.02-.03.03-.04.05,0,0-.01.01-.02.02s0,.02,0,.03c0,.02-.02.04-.02.06,0,.02-.01.04-.02.06,0,.02,0,.04,0,.06,0,.01,0,.02,0,.03l.02,58.67c0,.26.21.47.47.47.26,0,.47-.21.47-.47l-.02-57.85,24.48,14.16v29.06s0,.02,0,.03c0,.03.01.06.02.09,0,.03.02.06.03.09,0,0,0,.02,0,.03,0,.01.02.02.03.03.03.05.07.09.12.12.02.01.03.02.05.03.06.03.13.06.21.06h0s0,0,0,0c.08,0,.15-.02.21-.06,0,0,.02,0,.02,0l50.5-29.24,24.56,14.11-50.03,28.93c-.22.13-.3.42-.17.64.09.15.24.23.41.23.08,0,.16-.02.23-.06l50.73-29.33s0,0,0,0h0s.03-.03.04-.04c.03-.02.05-.04.07-.06.01-.02.03-.03.04-.05,0,0,.01,0,.02-.02,0,0,0-.02,0-.03,0-.02.02-.04.02-.06,0-.02.01-.04.02-.06,0-.02,0-.04,0-.06,0-.01,0-.02,0-.03v-28.46s24.67,14.25,24.67,14.25c0,0,0,0,0,0,.05.03.1.03.15.04.03,0,.05.02.08.02h0s.02,0,.03,0c.07,0,.14-.02.21-.05,0,0,0,0,0,0l25.4-14.67c.15-.08.23-.24.23-.41v-57.84l24.7,14.25c.07.04.15.06.23.06h0s.02,0,.03,0c.07,0,.14-.02.2-.05,0,0,0,0,0,0l25.4-14.66c.15-.08.23-.24.23-.41v-58.41s25.04-14.44,25.04-14.44l50.23,29v29.06s0,.03.01.04c0,.06.02.11.04.16,0,.02.02.04.03.05.04.06.09.12.16.16l101.37,58.53v29.06c0,.17.09.32.23.41l25.4,14.67c.07.04.15.06.23.06s.16-.02.23-.06c.15-.08.23-.24.23-.41v-58.67s0-.02,0-.03c0-.02,0-.04,0-.06,0-.02,0-.04-.02-.06,0-.02-.01-.04-.02-.06,0,0,0-.02,0-.03s-.01-.01-.02-.02c-.01-.02-.02-.03-.04-.05-.01-.02-.03-.03-.05-.05-.02-.01-.03-.03-.05-.04,0,0-.01-.01-.02-.02l-24.69-14.25,49.85-28.79,24.93,14.39v28.79l-25.19,14.5s-.01.01-.02.02c-.02.01-.03.02-.05.04-.02.01-.03.03-.05.05-.01.02-.03.03-.04.05,0,0-.01.01-.02.02s0,.02,0,.03c0,.02-.02.04-.02.06,0,.02-.01.04-.02.06,0,.02,0,.04,0,.06,0,.01,0,.02,0,.03l.02,58.43-25.17,14.53c-.22.13-.3.42-.17.64.09.15.25.23.41.23.08,0,.16-.02.23-.06l25.4-14.67c.15-.08.22-.24.23-.4,0-.01,0-.03,0-.04l-.02-57.85,24.48,14.16v29.06s0,.02,0,.03c0,.02,0,.04,0,.06,0,.02,0,.04.02.06,0,.02.01.04.02.06,0,0,0,.02,0,.03,0,0,.01,0,.02.02.01.02.02.04.04.05.02.02.05.04.07.06.02.01.03.03.04.04h0s50.8,29.33,50.8,29.33c.07.04.15.06.23.06.16,0,.32-.08.41-.23.13-.22.05-.51-.17-.64l-24.7-14.26,50.12-28.98h0s.03-.03.04-.04c.03-.02.05-.04.07-.06.01-.02.03-.03.04-.05,0,0,.01,0,.02-.02,0,0,0-.02,0-.03,0-.02.02-.04.02-.06,0-.02.01-.04.02-.06,0-.02,0-.04,0-.06,0,0,0-.02,0-.03v-28.46s24.67,14.25,24.67,14.25c0,0,0,0,0,0,.05.03.1.03.15.04.03,0,.05.02.08.02h0s.02,0,.03,0c.07,0,.14-.02.21-.05,0,0,0,0,0,0l25.4-14.67c.15-.08.23-.24.23-.41v-57.84l24.7,14.25c.07.04.15.06.23.06h0s.02,0,.03,0c.07,0,.14-.02.2-.05,0,0,0,0,0,0l25.4-14.66c.15-.08.23-.24.23-.41v-58.41s24.84-14.33,24.84-14.33l50.43,29.12v29.06s0,.03.01.04c0,.06.02.11.04.16,0,.02.02.04.03.05.04.06.09.12.16.16l101.37,58.53v29.06c0,.17.09.32.23.41l25.4,14.67c.07.04.15.06.23.06s.16-.02.23-.06c.15-.08.23-.24.23-.41v-58.67s0-.02,0-.03c0-.02,0-.04,0-.06,0-.02,0-.04-.02-.06,0-.02-.01-.04-.02-.06,0,0,0-.02,0-.03s-.01-.01-.02-.02c-.01-.02-.02-.03-.04-.05-.01-.02-.03-.03-.05-.05-.02-.01-.03-.03-.05-.04,0,0-.01-.01-.02-.02l-24.69-14.25,50.08-28.93s.03-.03.04-.04c.03-.02.05-.04.07-.06.02-.02.03-.05.05-.07.02-.03.03-.05.04-.08.01-.03.01-.06.02-.09,0-.02.01-.04.01-.06v-29.33s0-.02,0-.03c0-.03-.01-.06-.02-.09ZM1243.35,822.48s.01,0,.02.01l24.68,14.25-24.47,14.13-100.66-58.12,24.46-14.12,50.57,29.19s0,0,.01,0l25.4,14.66ZM1142.44,763.68l24.46-14.12v28.25s-24.46,14.12-24.46,14.12v-28.25ZM1167.84,718.49v-86.26l24.47,14.13v58.01l-24.47,14.12ZM1193.25,617.57l23.97,13.85-23.97,13.86v-27.7ZM1166.9,690.35v28.13l-49.85-28.68v-28.24s49.85,28.78,49.85,28.78ZM1116.11,660.58c-.04.11-.04.22,0,.32v29.11s0,.04,0,.06v28.96s-50.34,29.04-50.34,29.04l-24.47-14.11,24.69-14.25s.02-.01.03-.02l25.17-14.53c.25-.01.45-.21.45-.47v-87.11c2.8,1.62,13.6,7.85,24.46,14.11v28.88ZM888.01,851.8l24.41,14.15-24.46,14.12-24.48-14.16,24.54-14.12ZM888.15,821.52s0,0,0,0l-25.11-14.5v-28.25l24.56,14.18c.08.1.19.17.32.18l50.38,29.09v28.24l-50.14-28.95ZM811.53,837.03s.01,0,.02.01l24.68,14.25-24.47,14.13-100.66-58.12,24.46-14.12,50.57,29.19s0,0,.01,0l25.4,14.66ZM710.62,778.23l24.46-14.12v28.25s-24.46,14.12-24.46,14.12v-28.25ZM736.02,792.35v-29.06c0-.08-.02-.15-.06-.21,0-.02-.02-.03-.03-.05-.03-.05-.07-.08-.12-.12-.01,0-.02-.02-.03-.03l-50.56-29.19v-28.25s50.08,28.81,50.08,28.81c0,0,0,0,0,0h0c.07.04.15.06.23.06h0s.02,0,.03,0c.07,0,.14-.02.2-.05,0,0,0,0,0,0l25.41-14.67c.15-.08.23-.24.23-.41v-58.28l25.15-14.54c.15-.08.23-.24.23-.41s-.09-.32-.23-.41l-25.38-14.66c-.15-.08-.32-.08-.47,0-.15.08-.23.24-.23.41v28.52l-24.7-14.26s-.02,0-.03,0c-.03-.01-.06-.02-.09-.03-.03,0-.06-.02-.09-.02,0,0-.02,0-.03,0-.02,0-.04,0-.06.01-.03,0-.06,0-.09.02-.03.01-.05.02-.08.04-.03.02-.05.03-.07.05-.02.02-.04.05-.06.07-.01.02-.03.03-.04.04,0,0,0,.02,0,.03-.01.03-.02.06-.03.09,0,.03-.02.06-.02.09,0,0,0,.02,0,.03v57.86l-49.86-28.78v-28.24c12.09,6.98,23.96,13.83,24.66,14.23.07.04.15.06.23.06s.16-.02.23-.06c.15-.08.24-.24.24-.41v-29.01l25.21-14.57s0,0,.02-.01l25.1-14.49,50.37,29.08v28.74l-25.17,14.53s0,0,0,0c0,0,0,0,0,0-.07.04-.11.09-.15.15-.01.02-.02.04-.03.05-.02.05-.04.1-.04.16,0,.01-.01.02-.01.04v29.33c0,.17.09.32.23.41l25.17,14.53v28.79s-24.46,14.12-24.46,14.12v-28.51c0-.17-.09-.32-.24-.41-.15-.08-.32-.08-.47,0l-25.4,14.67c-.15.08-.23.24-.23.41s.09.32.23.41l25.17,14.53v29.01s.02.02.02.03c0,.03.01.06.02.09,0,.03.02.06.03.09,0,0,0,.02,0,.03,0,.01.02.02.03.03.03.05.07.09.12.12.02.01.03.02.05.03.06.03.13.06.21.06h0s0,0,0,0c.08,0,.15-.02.21-.06,0,0,.02,0,.02,0l50.79-29.29s0,0,0,0h0s.03-.03.05-.05c.02-.02.04-.03.06-.05.02-.02.03-.04.04-.06,0,0,.01,0,.02-.02,0-.01,0-.02.01-.03,0-.01.01-.03.02-.04,0-.02.02-.05.02-.07,0-.02,0-.05,0-.07,0,0,0-.01,0-.02v-28.52l49.86,28.79v28.25l-24.7-14.26s-.02,0-.03,0c-.02,0-.04-.02-.06-.02-.02,0-.04-.01-.06-.02-.02,0-.04,0-.06,0,0,0-.02,0-.03,0s-.02,0-.03,0c-.02,0-.04,0-.06,0-.02,0-.04,0-.06.02-.02,0-.04.01-.06.02,0,0-.02,0-.03,0l-75.97,43.86-50.34-29.06ZM659.42,748.17c-.19-.03-.38.06-.48.23-.01.02-.01.04-.02.06l-24.98,14.41-24.47-14.11,24.69-14.25s.02-.01.03-.02l25.38-14.66c.15-.08.23-.24.23-.41,0-.02-.01-.04-.02-.06,0-.04.02-.07.02-.11v-87.11c2.8,1.62,13.6,7.85,24.46,14.11v28.88c-.03.11-.03.22,0,.32v29.11s0,.04,0,.06v29.2s-24.87,14.35-24.87,14.35ZM456.19,866.58l24.41,14.15-24.46,14.12-24.48-14.16,24.54-14.12ZM456.32,836.31s0,0-.01,0l-25.11-14.5v-28.25l24.56,14.18c.08.1.19.17.32.18l50.38,29.09v28.24l-50.14-28.95ZM482,763.38s0-.04,0-.06c0-.02,0-.04-.02-.06,0-.02-.01-.04-.02-.06,0,0,0-.02,0-.03s-.01-.01-.02-.02c-.01-.02-.02-.03-.04-.05-.01-.02-.03-.03-.05-.05-.02-.01-.03-.03-.05-.04,0,0-.01-.01-.02-.02l-75.97-43.86v-28.79l50.57-29.2c.07-.04.12-.1.17-.17,0,0,0,0,0,0,.04-.07.05-.14.06-.21,0,0,0-.01,0-.02l-.03-58.38,50.41-29.11c.12-.03.23-.09.3-.21.04-.07.06-.15.06-.23,0-.02.01-.03.01-.05v-29.07l24.47-14.12v57.58s-50.53,29.17-50.53,29.17c0,0-.01.01-.02.02-.02.01-.03.02-.05.04-.02.01-.03.03-.05.05-.01.02-.03.03-.04.05,0,0-.01.01-.02.02s0,.02,0,.03c0,.02-.02.04-.02.06,0,.02-.01.04-.02.06,0,.02,0,.04,0,.06,0,0,0,.02,0,.03v58.39s-25.17,14.53-25.17,14.53c0,0-.01.01-.02.02-.06.04-.12.09-.15.15,0,0,0,0,0,0h0c-.04.07-.05.14-.06.21,0,0,0,.01,0,.02v29.33c0,.17.09.32.23.41l25.4,14.67s.01,0,.02,0l25.38,14.66c.07.04.15.06.23.06s.16-.02.23-.06l25.4-14.67c.15-.08.23-.24.23-.41s-.09-.32-.23-.41l-25.4-14.67c-.15-.08-.32-.08-.47,0l-24.7,14.26v-28.26s24.93-14.38,24.93-14.38l50.34,29.06v57.56l-24.7-14.24s-.04-.01-.06-.02c-.03-.01-.06-.02-.09-.03-.03,0-.06,0-.1,0-.03,0-.05,0-.08,0-.03,0-.06.02-.1.03-.02,0-.04,0-.05.02l-25.4,14.67s-.01.01-.02.02c-.03.02-.05.04-.07.06,0,0,0,0,0,0h0s-.04.04-.05.06c0,0-.01.01-.02.02,0,.01,0,.03-.01.04,0,.01-.01.03-.02.04,0,.02-.01.04-.01.06,0,.02,0,.04,0,.06,0,.02,0,.03,0,.05v57.84l-24.46-14.12v-58.39s0-.02,0-.03ZM329.15,529.3l24.41,14.15-24.46,14.12-24.48-14.16,24.54-14.12ZM329.29,499.02s0,0-.01,0l-25.11-14.5v-28.25l24.56,14.18c.08.1.19.17.32.18l50.38,29.09v28.24l-50.14-28.95ZM354.96,426.1s0-.04,0-.06c0-.02,0-.04-.02-.06,0-.02-.01-.04-.02-.06,0,0,0-.02,0-.03,0,0-.01-.01-.02-.02-.01-.02-.02-.03-.04-.05-.01-.02-.03-.03-.05-.05-.02-.01-.03-.03-.05-.04,0,0-.01-.01-.02-.02l-75.97-43.86v-28.78l50.58-29.2c.15-.08.23-.24.23-.41l-.03-58.27,50.45-29.13c.12-.03.23-.09.3-.21.04-.07.06-.15.06-.23,0-.02.01-.03.01-.05v-29.07l24.47-14.12v57.48s-50.56,29.19-50.56,29.19c0,0-.01.01-.02.02-.02.01-.03.02-.05.04-.02.01-.03.03-.05.05-.01.02-.03.03-.04.05,0,0-.01.01-.02.02s0,.02,0,.03c0,.02-.02.04-.02.06,0,.02-.01.04-.02.06,0,.02,0,.04,0,.06,0,0,0,.02,0,.03v58.39s-25.17,14.53-25.17,14.53c0,0-.01.01-.02.02-.06.04-.12.09-.15.15,0,0,0,0,0,0h0c-.04.07-.05.14-.06.21,0,0,0,.01,0,.02v29.33c0,.17.09.32.23.41l25.4,14.67s.01,0,.02,0l25.38,14.66c.07.04.15.06.23.06s.16-.02.23-.06l25.4-14.67c.15-.08.23-.24.23-.41s-.09-.32-.23-.41l-25.4-14.67c-.15-.08-.32-.08-.47,0l-24.7,14.26v-28.26s24.93-14.38,24.93-14.38l50.34,29.06v57.56l-24.7-14.24s-.04-.01-.05-.02c-.03-.01-.06-.02-.09-.03-.03,0-.06,0-.09,0-.03,0-.05,0-.08,0-.03,0-.06.02-.1.03-.02,0-.04,0-.05.02l-25.4,14.67s-.01.01-.02.02c-.03.02-.05.04-.07.06,0,0,0,0,0,0h0s-.04.04-.05.06c0,0-.01.01-.02.02,0,.01,0,.03-.01.04,0,.01-.01.03-.02.04,0,.02-.01.04-.01.06,0,.02,0,.04,0,.06,0,.02,0,.03,0,.05v57.84l-24.46-14.12v-58.39s0-.02,0-.03ZM253.36,367.19v-58.01l24.46-14.01v86.14l-24.46-14.12ZM177.15,264.65l-.02-57.61,24.48,14.16v29.06s0,.02,0,.03c0,.02,0,.04,0,.06,0,.02,0,.04.02.06,0,.02.01.04.02.06,0,0,0,.02,0,.03,0,0,.01,0,.02.02.01.02.02.04.04.05.02.02.05.04.07.06.02.01.03.03.04.04l75.5,43.7-24.41,13.98s-.03,0-.05,0c-.02,0-.04,0-.05.01l-75.69-43.7ZM354.96,132.9v-57.82s24.46,14.11,24.46,14.11v58.14s-24.46,14.12-24.46,14.12v-28.45s0-.06,0-.1ZM354.26,162.66c.07.04.15.06.23.06h0s0,0,0,0c.01,0,.02,0,.03,0,.07,0,.14-.02.2-.05,0,0,0,0,0,0l25.4-14.66c.15-.08.23-.24.23-.41v-58.41s25.04-14.44,25.04-14.44l50.23,29v29.06s0,.02.01.04c0,.06.02.11.04.16,0,.02.02.04.03.05.04.06.09.12.16.16l50.1,28.93-24.47,14.13-25.16-14.53c-.15-.08-.32-.08-.47,0-.15.08-.23.24-.23.41v29.33c0,.17.09.32.23.41.07.04.15.06.23.06s.16-.02.23-.06l24.69-14.25v28.13s-49.86,28.81-49.86,28.81v-57.64s0,0,0,0c0,0,0,0,0,0,0,0,0,0,0,0,0-.07-.02-.14-.05-.2-.01-.02-.02-.04-.04-.06-.03-.04-.06-.08-.11-.11-.01,0-.02-.03-.03-.03l-25.4-14.67c-.15-.08-.32-.08-.47,0l-50.8,29.33s-.01.01-.02.02c-.02.01-.03.02-.05.04-.02.01-.03.03-.05.05-.01.02-.03.03-.04.05,0,0-.01.01-.02.02,0,0,0,.02,0,.03,0,.02-.02.04-.02.06,0,.02-.01.04-.02.06,0,.02,0,.04,0,.06,0,0,0,.02,0,.03v29.06s-50.3,29.03-50.3,29.03c-.01,0-.02,0-.03,0-.26,0-.47.21-.47.47h0s-.03.08-.03.11.02.07.03.1v58.17s-24.47,14.13-24.47,14.13v-28.29s0-.01,0-.02c0-.07-.02-.14-.06-.21,0,0,0,0,0,0-.04-.06-.09-.11-.15-.15,0,0,0-.01-.02-.02l-50.13-29.02,50.16-29h0s.03-.03.04-.04c.03-.02.05-.04.07-.06.01-.02.03-.03.04-.05,0,0,.01,0,.02-.02,0,0,0-.02,0-.03,0-.02.02-.04.02-.06,0-.02.01-.04.02-.06,0-.02,0-.04,0-.06,0,0,0-.02,0-.03v-28.46s24.67,14.25,24.67,14.25h0s.1.03.15.04c.03,0,.05.02.08.02h0s.02,0,.03,0c.07,0,.14-.02.21-.05,0,0,0,0,0,0l25.4-14.67c.15-.08.23-.24.23-.41v-57.84l24.7,14.25ZM532.07,147.88s0,0,0,0l25.4,14.66s.01,0,.02,0l24.68,14.25-24.47,14.13-100.66-58.12,24.46-14.12,50.57,29.19ZM608.51,133.35l24.93,14.39v28.79l-25.19,14.5s-.01.01-.02.02c-.02.01-.03.02-.05.04-.02.01-.03.03-.05.05-.01.02-.03.03-.04.05,0,0-.01.01-.02.02,0,0,0,.02,0,.03,0,.02-.02.04-.02.06s-.01.04-.02.06c0,.02,0,.04,0,.06,0,0,0,.02,0,.03l.02,58.42-24.87,14.36s-.06-.02-.09-.02c-.26,0-.47.21-.47.47v28.52l-24.66-14.24s-.04-.01-.06-.02c-.03-.01-.06-.02-.09-.03-.03,0-.06,0-.09,0-.03,0-.06,0-.09,0-.03,0-.06.02-.09.03-.02,0-.04,0-.06.02l-25.4,14.69s-.03.03-.04.04c-.03.02-.05.04-.07.06-.02.02-.03.05-.05.07-.02.03-.03.05-.04.08s-.01.06-.02.09c0,.02-.01.04-.01.06v28.5l-24.46-14.12v-57.58s24.7,14.26,24.7,14.26c.07.04.15.06.23.06s.16-.02.23-.06l50.52-29.17s.03.01.04.01c.08,0,.16-.02.23-.06.15-.08.23-.24.23-.41v-58.67s0-.02,0-.03c0-.02,0-.04,0-.06,0-.02,0-.04-.02-.06,0-.02-.01-.04-.02-.06,0,0,0-.02,0-.03,0,0-.01-.01-.02-.02-.01-.02-.02-.03-.04-.05-.01-.02-.03-.03-.04-.04-.02-.01-.03-.03-.05-.04,0,0-.01-.01-.02-.02l-24.69-14.25,49.85-28.79ZM658.84,162.41v28.25s-24.46-14.18-24.46-14.18v-28.19l24.46,14.12ZM786.79,118.12v-57.82s24.47,14.11,24.47,14.11v58.13s-24.46,14.12-24.46,14.12v-28.45s0-.06,0-.09ZM786.09,147.88c.07.04.15.06.23.06h0s.02,0,.03,0c.07,0,.14-.02.2-.05,0,0,0,0,0,0l25.4-14.66c.15-.08.23-.24.23-.41v-58.41s24.92-14.38,24.92-14.38l50.3,29.04v29.06s0,.03.01.04c0,.06.02.11.04.16,0,.02.02.04.03.05.04.06.09.12.16.16l50.03,28.89-24.35,14.06-25.16-14.53c-.15-.08-.32-.08-.47,0-.15.08-.23.24-.23.41v29.33c0,.17.09.32.23.41.07.04.15.06.23.06s.16-.02.23-.06l24.69-14.25v28.36s-49.86,28.81-49.86,28.81v-57.87s0,0,0,0,0,0,0,0c0,0,0,0,0,0,0-.07-.02-.14-.05-.2-.01-.02-.02-.04-.04-.06-.03-.04-.07-.08-.11-.11-.01,0-.02-.02-.03-.03l-25.4-14.67c-.15-.08-.32-.08-.47,0l-50.8,29.33s-.01.01-.02.02c-.02.01-.03.02-.05.04-.02.01-.03.03-.05.05-.01.02-.03.03-.04.05,0,0-.01.01-.02.02,0,0,0,.02,0,.03,0,.02-.02.04-.02.06,0,.02-.01.04-.02.06,0,.02,0,.04,0,.06,0,0,0,.02,0,.03v29.06s-50.3,29.03-50.3,29.03c-.01,0-.02,0-.03,0-.26,0-.47.21-.47.47h0s-.03.08-.03.11.02.07.03.1v58.17s-24.46,14.13-24.46,14.13v-28.52s0-.02,0-.03c0-.02,0-.04,0-.06,0-.02,0-.04-.02-.06s-.01-.04-.02-.06c0,0,0-.02,0-.03,0,0-.01-.01-.02-.02-.01-.02-.02-.03-.04-.05-.02-.02-.03-.03-.05-.05-.02-.01-.03-.03-.05-.04,0,0-.01-.01-.02-.02l-25.29-14.71c-.09-.05-.19-.06-.28-.05l-24.48-14.08,50.07-28.95h0s.03-.03.04-.04c.03-.02.05-.04.07-.06.01-.02.03-.03.04-.05,0,0,.01,0,.02-.02,0,0,0-.02,0-.03,0-.02.02-.04.02-.06,0-.02.01-.04.02-.06,0-.02,0-.04,0-.06,0,0,0-.02,0-.03v-28.46s24.67,14.25,24.67,14.25c0,0,0,0,0,0,.05.03.1.03.15.04.03,0,.05.02.08.02h0s0,0,0,0c0,0,.02,0,.03,0,.07,0,.14-.02.21-.05,0,0,0,0,0,0l25.4-14.67c.15-.08.23-.24.23-.41v-57.84l24.7,14.25ZM963.85,133.2s0,0,.01,0l25.4,14.66s.01,0,.02.01l24.68,14.25-24.47,14.13-24.92-14.39s-.01-.05-.02-.07c-.1-.18-.3-.26-.49-.22l-24.89-14.37s-.01-.05-.02-.07c-.1-.17-.3-.26-.49-.22l-49.83-28.77,24.46-14.12,50.57,29.19ZM1040.29,118.68l24.93,14.39v28.79l-25.19,14.5s-.01.01-.02.02c-.02.01-.03.02-.05.04-.02.01-.03.03-.05.05-.01.02-.03.03-.04.05,0,0-.01.01-.02.02,0,0,0,.02,0,.03,0,.02-.02.04-.02.06s-.01.04-.02.06c0,.02,0,.04,0,.06,0,0,0,.02,0,.03l.02,58.42-25.17,14.53s-.03.03-.05.05c-.01.01-.03.02-.04.04-.04.04-.07.08-.09.13,0,0,0,0,0,0-.04.08-.05.18-.04.27v28.43l-24.66-14.24s-.04-.01-.06-.02c-.03-.01-.06-.02-.09-.03-.03,0-.06,0-.09,0s-.06,0-.09,0c-.03,0-.06.02-.09.03-.02,0-.04,0-.06.02l-25.4,14.69s-.03.03-.04.04c-.03.02-.05.04-.07.06-.02.02-.03.05-.05.07-.02.03-.03.05-.04.08-.01.03-.01.06-.02.09,0,.02-.01.04-.01.06v28.5l-24.46-14.12v-57.58s24.7,14.26,24.7,14.26c.07.04.15.06.23.06s.16-.02.23-.06l50.8-29.33c.21-.12.28-.37.19-.58v-58.5s0-.02,0-.03c0-.02,0-.04,0-.06,0-.02,0-.04-.02-.06,0-.02-.01-.04-.02-.06,0,0,0-.02,0-.03,0,0-.01-.01-.02-.02-.01-.02-.02-.03-.04-.05-.01-.02-.03-.03-.05-.05-.02-.01-.03-.03-.05-.04,0,0-.01-.01-.02-.02l-24.69-14.25,49.85-28.79ZM1090.62,147.73v28.25s-24.46-14.18-24.46-14.18v-28.19l24.46,14.12ZM1166.83,161.32l-24.46-14.12-.02-57.59,24.49,14.14v57.58ZM1141.4,89.06l.04,87.66s0,.06,0,.1v28.44s-24.48-14.07-24.48-14.07v-29s0,0,0-.01v-87.23l24.44,14.11ZM1116.02,191.11l-49.86,28.87v-28.25l25.16-14.53h0s.03-.03.04-.04c.03-.02.05-.04.07-.06.02-.02.03-.03.04-.05,0,0,.01,0,.02-.02,0,0,0-.02,0-.03,0-.02.02-.04.02-.05,0-.02.01-.04.02-.06,0-.02,0-.04,0-.06,0,0,0-.02,0-.03v-28.52s24.46,14.12,24.46,14.12v28.71ZM1140.95,264.91l-24.43,14.03-75.77-43.74-.02-57.61,24.48,14.16v29.06s0,.02,0,.03c0,.02,0,.04,0,.06,0,.02,0,.04.02.06,0,.02.01.04.02.06,0,0,0,.02,0,.03,0,0,.01,0,.02.02.01.02.02.04.04.05.02.02.05.04.07.06.02.01.03.03.04.04l75.5,43.71ZM1141.46,353.06c.06.18.23.31.44.31.03,0,.05-.01.08-.02l75.23,43.43-24.46,14.13-101.14-58.39v-28.25l49.85,28.78ZM1167.58,425.72s-.02,0-.03,0c-.02,0-.04-.02-.06-.02-.02,0-.04-.01-.06-.02-.02,0-.04,0-.06,0,0,0-.02,0-.03,0s-.02,0-.03,0c-.02,0-.04,0-.06,0-.02,0-.04,0-.06.02-.02,0-.04.01-.06.02,0,0-.02,0-.03,0l-75.97,43.86-50.34-29.06v-29.06c0-.08-.02-.15-.06-.21,0-.02-.02-.03-.03-.05-.03-.05-.07-.08-.12-.12-.01,0-.02-.02-.03-.03l-50.56-29.19v-28.25s50.08,28.81,50.08,28.81t0,0h0c.07.04.15.06.23.06h0s.02,0,.03,0c.07,0,.14-.02.2-.05,0,0,0,0,0,0l25.41-14.67c.15-.08.23-.24.23-.41v-58.28l25.15-14.54c.15-.08.23-.24.23-.41s-.09-.32-.23-.41l-25.38-14.66c-.15-.08-.32-.08-.47,0-.15.08-.23.24-.23.41v28.52l-24.7-14.26s-.02,0-.03,0c-.03-.01-.06-.02-.09-.03-.03,0-.06-.02-.09-.02,0,0-.02,0-.03,0-.02,0-.04,0-.06.01-.03,0-.06,0-.09.02-.03,0-.05.02-.08.04-.03.01-.05.03-.07.05-.02.02-.04.05-.06.07-.01.02-.03.03-.04.04,0,0,0,.02,0,.03-.01.03-.02.06-.03.09,0,.03-.02.06-.02.09,0,0,0,.02,0,.03v57.86l-49.86-28.78v-28.24c12.09,6.98,23.96,13.83,24.66,14.23.07.04.15.06.23.06s.16-.02.23-.06c.15-.08.24-.24.24-.41v-29.01l25.21-14.57c.06-.03.1-.08.14-.12l24.97-14.41,50.38,29.09v28.77l-25.17,14.53c-.07.04-.12.09-.16.16-.01.02-.02.04-.03.05-.02.05-.04.1-.04.16,0,.01-.01.02-.01.04v29.33c0,.17.09.32.23.41l25.17,14.53v28.79s-24.46,14.12-24.46,14.12v-28.51c0-.17-.09-.32-.24-.41-.15-.08-.32-.08-.47,0l-25.4,14.67c-.15.08-.23.24-.23.41s.09.32.23.41l25.17,14.53v29.01s.02.02.02.03c0,.03.01.06.02.09,0,.03.02.06.03.09,0,0,0,.02,0,.03,0,.01.02.02.03.03.03.05.07.09.12.12.02.01.03.02.05.03.06.03.13.06.21.06h0s0,0,0,0c.08,0,.15-.02.21-.06,0,0,.02,0,.02,0l50.79-29.29s0,0,0,0h0s.03-.03.05-.05c.02-.02.04-.03.06-.05.02-.02.03-.04.05-.06,0,0,.01,0,.02-.02,0-.01,0-.02.01-.04,0-.01.01-.03.02-.04,0-.02.02-.05.02-.07,0-.02,0-.05,0-.07,0,0,0-.01,0-.02v-28.52l49.86,28.79v28.25l-24.7-14.26ZM1217.67,485.05v28.25s-24.46-14.18-24.46-14.18v-28.19l24.46,14.12ZM1243.07,528.43l-49.86,28.87v-28.25l25.16-14.53s0,0,0,0h0s.03-.03.04-.04c.03-.02.05-.04.07-.06.01-.02.03-.03.04-.05,0,0,.01,0,.02-.02,0,0,0-.02,0-.03,0-.02.02-.04.02-.06,0-.02.01-.04.02-.06,0-.02,0-.04,0-.06,0-.01,0-.02,0-.03v-28.52s24.46,14.12,24.46,14.12v28.71ZM1243.31,587.85c.07.04.15.06.23.06.03,0,.06-.02.09-.02l24.41,14.2-24.5,14.15-75.73-43.73-.02-57.61,24.48,14.16v29.06s0,.02,0,.03c0,.02,0,.04,0,.06,0,.02,0,.04.02.06,0,.02.01.04.02.06,0,0,0,.02,0,.03,0,0,.01,0,.02.02.01.02.02.04.04.05.02.02.05.04.07.06.02.01.03.03.04.04l50.8,29.33ZM1192.8,499.96l24.41,14.16-24.46,14.12-24.48-14.16,24.54-14.12ZM1192.28,499.18l-25.19,14.5s-.01.01-.02.02c-.02.01-.03.02-.05.04-.02.01-.03.03-.05.05-.01.02-.03.03-.04.05,0,0-.01.01-.02.02s0,.02,0,.03c0,.02-.02.04-.02.06,0,.02-.01.04-.02.06,0,.02,0,.04,0,.06,0,.01,0,.02,0,.03l.02,58.43-25.02,14.45c-.18.04-.32.18-.36.36,0,0,0,0,0,.01,0,.03-.02.05-.02.07v28.52l-24.66-14.24s-.04-.01-.06-.02c-.03-.01-.06-.02-.09-.03-.03,0-.06,0-.09,0-.03,0-.06,0-.09,0-.03,0-.06.02-.09.03-.02,0-.04,0-.06.02l-25.4,14.69s-.03.03-.04.04c-.03.02-.05.04-.07.06-.02.02-.03.05-.05.07-.02.03-.03.05-.04.08-.01.03-.01.06-.02.09,0,.02-.01.04-.01.06v28.5l-24.46-14.12v-57.58s24.7,14.26,24.7,14.26c.07.04.15.06.23.06s.16-.02.23-.06l50.77-29.31s0,0,0,0c0,0,0,0,0,0l.03-.02c.2-.11.27-.34.2-.55v-58.5s0-.02,0-.03c0-.02,0-.04,0-.06,0-.02,0-.04-.02-.06,0-.02-.01-.04-.02-.06,0,0,0-.02,0-.03s-.01-.01-.02-.02c-.01-.02-.02-.03-.04-.05-.01-.02-.03-.03-.05-.05-.02-.01-.03-.03-.05-.04,0,0-.01-.01-.02-.02l-24.69-14.25,49.85-28.79,24.93,14.39v28.79ZM1066.24,689.58v-28.01s24.46,14.12,24.46,14.12v28.13l-24.46-14.24ZM1065.77,718.75l-24.47-14.08,24.47-14.28,24.46,14.24-24.46,14.12ZM939.7,645.94l24.42-14.08,24.47,14.13-24.43,14.09-24.46-14.13ZM989.1,704.9v57.56l-24.7-14.24s-.04-.01-.06-.02c-.03-.01-.06-.02-.09-.03-.03,0-.06,0-.1,0-.03,0-.05,0-.08,0-.03,0-.06.02-.1.03-.02,0-.04,0-.05.02l-25.4,14.67s-.01.01-.02.02c-.03.02-.05.04-.07.06,0,0,0,0,0,0h0s-.04.04-.05.06c0,0-.01.01-.02.02,0,.01,0,.03-.01.04,0,.01-.01.03-.02.04,0,.02-.01.04-.01.06,0,.02,0,.04,0,.06,0,.02,0,.03,0,.05v57.84l-24.46-14.12v-58.39s0-.02,0-.03c0-.02,0-.04,0-.06,0-.02,0-.04-.02-.06,0-.02-.01-.04-.02-.06,0,0,0-.02,0-.03,0,0-.01-.01-.02-.02-.01-.02-.02-.03-.04-.05-.01-.02-.03-.03-.05-.05-.02-.01-.03-.03-.05-.04,0,0-.01-.01-.02-.02l-75.96-43.86v-28.79l50.57-29.2c.07-.04.12-.1.17-.17,0,0,0,0,0,0,.04-.07.05-.14.06-.21,0,0,0-.01,0-.02l-.03-58.38,50.41-29.11c.12-.03.23-.09.3-.21.04-.07.06-.15.06-.23,0-.02.01-.03.01-.05v-29.07l24.47-14.12v57.59s-50.53,29.17-50.53,29.17c0,0-.01.01-.02.02-.02.01-.03.02-.05.04-.02.01-.03.03-.05.05-.01.02-.03.03-.04.05,0,0-.01.01-.02.02s0,.02,0,.03c0,.02-.02.04-.02.06,0,.02-.01.04-.02.06,0,.02,0,.04,0,.06,0,0,0,.02,0,.03v58.39s-25.17,14.53-25.17,14.53c0,0-.01.01-.02.02-.06.04-.12.09-.15.15,0,0,0,0,0,0h0c-.04.07-.05.14-.06.21,0,0,0,.01,0,.02v29.33c0,.17.09.32.23.41l25.4,14.67s.01,0,.02,0l25.38,14.66c.07.04.15.06.23.06s.16-.02.23-.06l25.4-14.67c.15-.08.23-.24.23-.41s-.09-.32-.23-.41l-25.4-14.67c-.15-.08-.32-.08-.47,0l-24.7,14.26v-28.26s24.93-14.38,24.93-14.38l50.34,29.06ZM939.7,763.29l24.46-14.12,24.93,14.38v28.27l-49.39-28.52ZM761.89,748.64l23.99-13.85v27.71s-23.99-13.85-23.99-13.85ZM786.84,791.77v-28.21s24.93-14.39,24.93-14.39l24.46,14.12-49.38,28.48ZM836.69,762.48l-24.45-14.12v-28.25s24.45,14.12,24.45,14.12v28.24ZM786.83,704.36v-28.25l125.59,72.51-24.46,14.13-101.14-58.39ZM735.26,616.27s0,0-.02.01l-24.66,14.25v-28.26l24.93-14.39,24.46,14.12-24.72,14.27ZM760.49,660.91v58.01l-24.47,14.12v-86.26l24.47,14.13ZM735.08,733.04l-49.85-28.68v-28.24s49.85,28.78,49.85,28.78v28.13ZM660.29,631.33l24.47-14.15,24.8,14.33s.06.01.09.02v28.28c-5.78-3.34-43.72-25.23-49.36-28.48ZM633.95,733.54l-24.47-14.08,24.47-14.28,24.46,14.24-24.46,14.12ZM507.87,660.73l24.42-14.08,24.47,14.13-24.43,14.09-24.46-14.13ZM456.6,690.9l24.46,14.11v28.26s-24.46-14.12-24.46-14.12v-28.25ZM481.76,704.07c-.07-.04-.14-.07-.23-.07s-.16.03-.23.07l-24.23-13.98,24.46-14.12,24.46,14.12-24.23,13.98ZM380.27,616.31c-.11-.06-.23-.08-.35-.05l-24.5-14.14,50.12-28.98h0s.03-.03.04-.04c.03-.02.05-.04.07-.06.01-.02.03-.03.04-.05,0,0,.01,0,.02-.02,0,0,0-.02,0-.03,0-.02.02-.04.02-.06,0-.02.01-.04.02-.06,0-.02,0-.04,0-.06,0,0,0-.02,0-.03v-28.46s24.67,14.25,24.67,14.25c0,0,0,0,0,0,.05.03.1.03.15.04.03,0,.05.02.08.02h0s.02,0,.03,0c.07,0,.14-.02.21-.05,0,0,0,0,0,0l25.4-14.67c.15-.08.23-.24.23-.41v-57.84l24.7,14.25c.07.04.15.06.23.06h0s.02,0,.03,0c.07,0,.14-.02.2-.05,0,0,0,0,0,0l25.4-14.66c.15-.08.23-.24.23-.41v-58.41s25.04-14.44,25.04-14.44l50.23,29v29.06s0,.02.01.04c0,.06.02.11.04.16,0,.02.02.04.03.05.04.06.09.12.16.16l50.2,28.98-24.54,14.17-25.16-14.53c-.15-.08-.32-.08-.47,0-.15.08-.23.24-.23.41v29.33c0,.17.09.32.23.41.07.04.15.06.23.06s.16-.02.23-.06l24.69-14.25v28.13s-49.9,28.83-49.9,28.83v-57.75s0,0,0,0c0,0,0,0,0,0,0,0,0,0,0,0,0-.07-.02-.14-.05-.2-.01-.02-.02-.04-.04-.06-.03-.04-.06-.08-.11-.11-.01,0-.02-.03-.03-.03l-25.4-14.67c-.15-.08-.32-.08-.47,0l-50.8,29.33s-.01.01-.02.02c-.02.01-.03.02-.05.04-.02.01-.03.03-.05.05-.01.02-.03.03-.04.05,0,0-.01.01-.02.02,0,0,0,.02,0,.03,0,.02-.02.04-.02.06,0,.02-.01.04-.02.06,0,.02,0,.04,0,.06,0,.01,0,.02,0,.03v29.06s-50.59,29.2-50.59,29.2c-.15.08-.23.24-.23.41,0,.08.02.15.06.22v58.14s-24.46,14.13-24.46,14.13v-28.52s0-.02,0-.03c0-.02,0-.04,0-.06,0-.02,0-.04-.02-.06,0-.02-.01-.04-.02-.06,0,0,0-.02,0-.03s-.01-.01-.02-.02c-.01-.02-.02-.03-.04-.05-.01-.02-.03-.03-.05-.05-.02-.01-.03-.03-.05-.04,0,0-.01-.01-.02-.02l-25.29-14.71ZM405.3,426.67l24.93,14.38v28.27l-49.39-28.52,24.46-14.12ZM380.2,352.44s-.07-.04-.1-.06l-25.14-14.51v-57.58s24.47,14.13,24.47,14.13v29.03s0,.02,0,.03c0,.02,0,.04,0,.06,0,.02,0,.04.02.06,0,.02.01.04.02.06,0,0,0,.02,0,.03,0,0,.01,0,.02.02.01.02.02.04.04.05.02.02.05.04.07.06.02.01.03.03.04.04h0s0,0,0,0l75.5,43.61-24.46,14.12-50.5-29.15ZM329.56,353.61l24.46,14.11v28.26s-24.46-14.12-24.46-14.12v-28.25ZM354.72,366.78c-.07-.04-.14-.07-.23-.07s-.16.03-.23.07l-24.23-13.98,24.46-14.12,24.46,14.12-24.23,13.98ZM328.63,323.19l-49.87,28.8v-28.25l25.17-14.54c.15-.08.23-.24.23-.41v-57.72s24.44,14.09,24.44,14.09l.03,58.02ZM329.11,264.36s-.03,0-.04,0h0s-.01,0-.02,0l-24.44-14.1,49.89-28.79,24.41,14.14-49.8,28.75ZM354.96,220.65v-28.24s24.45,14.11,24.45,14.11v28.3l-24.45-14.17ZM379.88,205.7l-24.45-14.11,49.86-28.79,24.46,14.12-49.88,28.78ZM430.23,177.74v57.4c-.14.15-.18.37-.07.55.02.03.05.05.07.07v28.85s0,.05,0,.07c0,.02,0,.05,0,.07v58s-24.46-14.12-24.46-14.12v-29.16s0-.06,0-.09v-87.53s24.47-14.12,24.47-14.12ZM531.37,176.81l-24.47,14.13-24.46-14.12,24.47-14.13,24.46,14.12ZM557.71,279.9l24.8,14.33s.06.01.09.02v28.28c-5.78-3.34-43.72-25.23-49.36-28.48l24.47-14.15ZM633.97,177.32l24.41,14.15-24.46,14.12-24.48-14.16,24.54-14.12ZM684.64,206.64l24.56,14.11-49.84,28.81-24.51-14.1,49.79-28.83ZM735.05,205.32l-24.45-14.12v-28.25s24.45,14.12,24.45,14.12v28.24ZM684.57,265.15c.07.04.15.06.23.06.01,0,.03,0,.04-.01l24.34,14.15-24.42,14.21s-.03,0-.05,0c-.02,0-.04,0-.05.01l-75.68-43.7-.02-57.61,24.48,14.16v29.06s0,.02,0,.03c0,.02,0,.04,0,.06,0,.02,0,.04.02.06,0,.02.01.04.02.06,0,0,0,.02,0,.03,0,0,.01,0,.02.02.01.02.02.04.04.05.02.02.05.04.07.06.02.01.03.03.04.04h0s0,0,0,0l50.9,29.27ZM963.08,162.09l-24.35,14.06-24.46-14.12,24.35-14.06,24.46,14.12ZM989.02,177.07v28.79l-24.88,14.41-24.93-14.39v-28.9s24.82-14.33,24.82-14.33l25,14.43ZM989.54,265.34l24.8,14.33s.06.01.09.02v28.28c-5.78-3.34-43.72-25.23-49.36-28.48l24.47-14.15ZM1065.75,162.64l24.41,14.15-24.46,14.12-24.48-14.16,24.54-14.12ZM1040.29,236l24.46,14.12-24.72,14.27s-.03.03-.05.04c-.02.01-.04.02-.05.03,0,0-.01.02-.02.03,0,0-.02.01-.02.02l-24.53,14.17v-28.3l24.92-14.39ZM1065.27,309.07v58.01l-24.47,14.12v-86.26l24.47,14.13ZM1039.86,381.2l-49.85-28.68v-28.24s49.85,28.78,49.85,28.78v28.13ZM1166.87,455.18l-50.32,29.06-24.47-14.13,74.79-43.18v28.25ZM1090.9,470.52s0,0,.01,0l25.4,14.66s.01,0,.02.01l24.68,14.25-24.47,14.13-24.92-14.39s-.02-.07-.03-.1c-.11-.18-.32-.26-.52-.21l-24.85-14.35s-.02-.07-.03-.1c-.11-.18-.32-.26-.51-.21l-49.79-28.75,24.46-14.12,50.57,29.19ZM939.24,616.91l24.42-14.11v28.24s-24.43,14.09-24.43,14.09v-28.22ZM812.23,689.7v-58.12l24.46-14.12v86.37l-24.46-14.12ZM812.1,601.52c-.11-.06-.23-.08-.35-.05l-24.49-14.14,50.12-28.98s0,0,0,0h0s.03-.03.04-.04c.03-.02.05-.04.07-.06.01-.02.03-.03.04-.05,0,0,.01,0,.02-.02,0,0,0-.02,0-.03,0-.02.02-.04.02-.06,0-.02.01-.04.02-.06,0-.02,0-.04,0-.06,0,0,0-.02,0-.03v-28.46s24.67,14.25,24.67,14.25c0,0,0,0,0,0,.05.03.1.03.15.04.03,0,.05.02.08.02h0s.02,0,.03,0c.07,0,.14-.02.21-.05,0,0,0,0,0,0l25.4-14.67c.15-.08.23-.24.23-.41v-57.84l24.7,14.25c.07.04.15.06.23.06h0s.02,0,.03,0c.07,0,.14-.02.2-.05,0,0,0,0,0,0l25.4-14.66c.15-.08.23-.24.23-.41v-58.41s24.84-14.33,24.84-14.33l50.43,29.12v29.06s0,.03.01.04c0,.06.02.11.04.16,0,.02.02.04.03.05.04.06.09.12.16.16l50,28.87-24.33,14.05-25.16-14.53c-.15-.08-.32-.08-.47,0-.15.08-.23.24-.23.41v29.33c0,.17.09.32.23.41.07.04.15.06.23.06s.16-.02.23-.06l24.69-14.25v28.36s-49.9,28.83-49.9,28.83v-57.98s0,0,0,0c0,0,0,0,0,0,0,0,0,0,0,0,0-.07-.02-.14-.05-.2-.01-.02-.02-.04-.04-.06-.03-.04-.06-.08-.11-.11-.01,0-.02-.03-.03-.03l-25.4-14.67c-.15-.08-.32-.08-.47,0l-50.8,29.33s-.01.01-.02.02c-.02.01-.03.02-.05.04-.02.01-.03.03-.05.05-.01.02-.03.03-.04.05,0,0-.01.01-.02.02,0,0,0,.02,0,.03,0,.02-.02.04-.02.06,0,.02-.01.04-.02.06,0,.02,0,.04,0,.06,0,0,0,.02,0,.03v29.06s-50.59,29.2-50.59,29.2c-.15.08-.23.24-.23.41,0,.08.02.15.06.22v58.14s-24.46,14.13-24.46,14.13v-28.52s0-.02,0-.03c0-.02,0-.04,0-.06,0-.02,0-.04-.02-.06,0-.02-.01-.04-.02-.06,0,0,0-.02,0-.03,0,0-.01-.01-.02-.02-.01-.02-.02-.03-.04-.05-.01-.02-.03-.03-.05-.05-.02-.01-.03-.03-.05-.04,0,0-.01-.01-.02-.02l-25.3-14.71ZM710.02,601.51c-.18.04-.32.18-.36.36,0,0,0,0,0,.01,0,.03-.02.05-.02.07v28.52l-24.66-14.24s-.04-.01-.06-.02c-.03-.01-.06-.02-.09-.03-.03,0-.06,0-.09,0s-.06,0-.09,0c-.03,0-.06.02-.09.03-.02,0-.04,0-.05.02l-25.4,14.69s-.03.03-.04.04c-.03.02-.05.04-.07.06-.02.02-.03.05-.05.07-.02.03-.03.05-.04.08s-.01.06-.02.09c0,.02-.01.04-.01.06v28.5l-24.47-14.12v-57.58s24.7,14.26,24.7,14.26c.07.04.15.06.23.06s.16-.02.23-.06l50.77-29.31s0,0,0,0,0,0,0,0l.03-.02c.2-.11.27-.34.2-.55v-58.5s0-.02,0-.03c0-.02,0-.04,0-.06,0-.02,0-.04-.02-.06,0-.02-.01-.04-.02-.06,0,0,0-.02,0-.03s-.01-.01-.02-.02c-.01-.02-.02-.03-.04-.05-.01-.02-.03-.03-.05-.05-.02-.01-.03-.03-.05-.04,0,0-.01-.01-.02-.02l-24.69-14.25,49.85-28.79,24.93,14.39v28.79l-25.19,14.5s-.01.01-.02.02c-.02.01-.03.02-.05.04-.02.01-.03.03-.05.05-.01.02-.03.03-.04.05,0,0-.01.01-.02.02s0,.02,0,.03c0,.02-.02.04-.02.06,0,.02-.01.04-.02.06,0,.02,0,.04,0,.06,0,.01,0,.02,0,.03l.02,58.43-25.02,14.45ZM558.67,601.98l49.4-28.52v57.03s-49.4-28.52-49.4-28.52ZM531.9,411.11s-.01.04-.02.06l-24.98,14.41-24.47-14.11,24.69-14.25s.02-.01.03-.02l25.38-14.66c.15-.08.23-.24.23-.41,0-.02-.01-.04-.02-.06,0-.04.02-.07.02-.11v-87.11c2.8,1.62,13.6,7.85,24.46,14.12v28.88c-.03.11-.03.22,0,.32v29.11s0,.04,0,.06v29.19s-24.87,14.35-24.87,14.35c-.19-.03-.38.06-.48.23ZM405.78,543.19v-28.25s24.45,14.13,24.45,14.13v28.24l-24.45-14.12ZM380.36,528.84s0,0,0,0v-87.24l24.44,14.11.03,87.66s0,.06,0,.09v28.45s-24.48-14.07-24.48-14.07v-29ZM430.23,527.98l-24.46-14.13-.02-57.59,24.49,14.14v57.58ZM431.17,440.88c.01-.07.02-.14,0-.2v-58.27l24.46-14.12v87.06c-.02.08-.02.16,0,.24v29.07c-.03.09-.03.18,0,.27v58.26l-24.46,14.12v-116.43ZM404.82,308.52l-24.46,14.1v-28.22s24.46-14.13,24.46-14.13v28.24ZM405.19,309.4l24.47,14.13-24.36,14.05-24.46-14.13,24.36-14.05ZM481.03,293.21l-49.4-28.52,49.4-28.52v57.03ZM430.65,324.04s.03.01.05.01c.08,0,.16-.02.23-.06.14-.08.22-.23.23-.39.03-.08.03-.17,0-.26v-28.5s49.86,28.78,49.86,28.78v58.55s.01.03.01.04c0,.06.02.11.04.16,0,.02.02.04.03.05.04.06.09.12.16.16l24.7,14.22-24.7,14.26c-.07.04-.12.09-.16.16-.01.02-.02.04-.03.05-.02.05-.04.1-.04.16,0,.01-.01.02-.01.04v57.84s-24.46-14.11-24.46-14.11v-87.73s0-.03-.01-.04c0-.06-.02-.11-.04-.16,0-.02-.02-.04-.03-.05-.04-.06-.09-.11-.15-.15,0,0,0,0,0,0h0l-50.1-28.94,24.42-14.08ZM531.84,381.32l-24.47-14.24v-28.25s24.47,14.12,24.47,14.12v28.37ZM506.91,396.25l-24.47-14.08,24.47-14.28,24.46,14.24-24.46,14.12ZM506.43,367.07l-24.46,14.28v-57.19s24.46,14.12,24.46,14.12v28.79ZM456.57,456.28l24.46,14.11v28.26s-24.46-14.12-24.46-14.12v-28.25ZM481.97,470.1v-57.83s24.46,14.11,24.46,14.11v58.14s-24.46,14.12-24.46,14.12v-28.45s0-.06,0-.09ZM582.84,323.74c.07.04.15.06.23.06s.16-.02.23-.06c.15-.08.24-.24.24-.41v-29.01l24.9-14.39s.03,0,.04,0c.08,0,.16-.03.22-.06,0,0,.01,0,.02,0l25.18-14.54,50.34,29.06v28.67l-25.17,14.53c-.07.04-.12.09-.16.16-.01.02-.02.04-.03.05-.02.05-.04.1-.04.16,0,.01-.01.02-.01.04v29.33c0,.17.09.32.23.41l25.17,14.53v28.79s-24.46,14.12-24.46,14.12v-28.51c0-.17-.09-.32-.24-.41-.15-.08-.32-.08-.47,0l-25.4,14.67c-.15.08-.23.24-.23.41s.09.32.23.41l25.17,14.53v29.01s.02.02.02.03c0,.03.01.06.02.09,0,.03.02.06.03.09,0,0,0,.02,0,.03,0,.01.02.02.03.03.03.05.07.09.12.12.02.01.03.02.05.03.06.03.13.06.21.06h0s0,0,0,0c0,0,0,0,0,0,.08,0,.15-.02.21-.06,0,0,.02,0,.02,0l50.79-29.29s0,0,0,0h0s.03-.03.05-.05c.02-.02.04-.03.06-.05.02-.02.03-.04.04-.06,0,0,.01,0,.02-.02,0-.01,0-.02.01-.03,0-.01.01-.03.02-.04,0-.02.02-.05.02-.07,0-.02,0-.05,0-.07,0,0,0-.01,0-.02v-28.52l49.86,28.79v28.25l-24.7-14.26s-.02,0-.03,0c-.02,0-.04-.02-.06-.02-.02,0-.04-.01-.06-.02-.02,0-.04,0-.06,0,0,0-.02,0-.03,0s-.02,0-.03,0c-.02,0-.04,0-.06,0-.02,0-.04,0-.06.02-.02,0-.04.01-.06.02,0,0-.02,0-.03,0l-75.97,43.86-50.34-29.06v-29.06c0-.08-.02-.15-.06-.21,0-.02-.02-.03-.03-.05-.03-.05-.07-.08-.12-.12-.01,0-.02-.02-.03-.03l-50.56-29.18v-28.25s50.08,28.81,50.08,28.81h0s0,0,0,0h0c.07.04.15.06.23.06h0s0,0,0,0c.01,0,.02,0,.03,0,.07,0,.14-.02.2-.05,0,0,0,0,0,0l25.41-14.67c.15-.08.23-.24.23-.41v-58.28l25.15-14.54c.15-.08.23-.24.23-.41s-.09-.32-.23-.41l-25.38-14.66c-.15-.08-.32-.08-.47,0-.15.08-.23.24-.23.41v28.52l-24.7-14.26s-.02,0-.03,0c-.03-.01-.06-.02-.09-.03-.03,0-.06-.02-.09-.02-.01,0-.02,0-.03,0-.02,0-.04,0-.06.01-.03,0-.06,0-.09.02-.03.01-.05.02-.08.04-.03.01-.05.03-.07.05-.02.02-.04.05-.06.07-.01.02-.03.03-.04.04,0,0,0,.02,0,.03-.01.03-.02.06-.03.09,0,.03-.02.06-.02.09,0,.01,0,.02,0,.03v57.86l-49.86-28.78v-28.24c12.09,6.98,23.96,13.83,24.66,14.23ZM761.16,309.09c.07-.04.12-.1.17-.17,0,0,0,0,0,0,.04-.07.05-.14.06-.21,0,0,0-.01,0-.02l-.03-58.27,50.45-29.13c.12-.03.23-.09.3-.21.04-.07.06-.15.06-.23,0-.02.01-.03.01-.05v-29.07l24.47-14.12v57.48s-50.56,29.19-50.56,29.19c0,0-.01.01-.02.02-.02.01-.03.02-.05.04-.02.01-.03.03-.05.05-.01.02-.03.03-.04.05,0,0-.01.01-.02.02,0,0,0,.02,0,.03,0,.02-.02.04-.02.06,0,.02-.01.04-.02.06,0,.02,0,.04,0,.06,0,.01,0,.02,0,.03v58.39s-25.17,14.53-25.17,14.53c0,0-.01.01-.02.02-.06.04-.12.09-.15.15,0,0,0,0,0,0h0c-.04.07-.05.14-.06.21,0,0,0,.01,0,.02v29.33c0,.17.09.32.23.41l25.4,14.67s.01,0,.02,0l25.38,14.66c.07.04.15.06.23.06s.16-.02.23-.06l25.4-14.67c.15-.08.23-.24.23-.41s-.09-.32-.23-.41l-25.4-14.67c-.15-.08-.32-.08-.47,0l-24.7,14.26v-28.26s24.93-14.38,24.93-14.38l50.34,29.06v57.56l-24.7-14.24s-.04-.01-.05-.02c-.03-.01-.06-.02-.09-.03-.03,0-.06,0-.09,0-.03,0-.05,0-.08,0-.03,0-.07.02-.1.03-.02,0-.04,0-.05.02l-25.4,14.67s-.01.01-.02.02c-.03.02-.05.04-.07.06,0,0,0,0,0,0,0,0,0,0,0,0-.02.02-.04.04-.05.06,0,0-.01.01-.02.02,0,.01,0,.03-.01.04,0,.02-.01.03-.02.05,0,.02-.01.04-.01.06,0,.02,0,.04,0,.05,0,.02,0,.03,0,.05v57.84l-24.46-14.12v-58.39s0-.02,0-.03c0-.02,0-.04,0-.06,0-.02,0-.04-.02-.06,0-.02-.01-.04-.02-.06,0,0,0-.02,0-.03,0,0-.01-.01-.02-.02-.01-.02-.02-.03-.04-.05-.01-.02-.03-.03-.05-.05-.02-.01-.03-.03-.05-.04,0,0-.01-.01-.02-.02l-75.97-43.86v-28.79l50.57-29.2ZM786.79,177.62l24.45,14.11v28.3l-24.45-14.17v-28.24ZM912.86,278.66l-49.4-28.52,49.4-28.52v57.04ZM963.66,338.4v28.13l-24.46-14.24v-28.01s24.46,14.12,24.46,14.12ZM938.73,381.47l-24.47-14.08,24.47-14.28,24.46,14.24-24.46,14.12ZM938.26,352.29l-24.46,14.28v-56.96s24.46,14.12,24.46,14.12v28.55ZM912.86,309.07v58.32s.01.03.01.04c0,.06.02.11.04.16,0,.02.02.04.03.05.04.06.09.12.16.16l24.7,14.22-24.7,14.26c-.07.04-.12.09-.16.16-.01.02-.02.04-.03.05-.02.05-.04.1-.04.16,0,.01-.01.02-.01.04v57.84s-24.46-14.11-24.46-14.11v-87.73s0-.02-.01-.04c0-.06-.02-.11-.04-.16,0-.02-.02-.04-.03-.05-.04-.06-.09-.12-.15-.15,0,0,0,0,0,0h0l-50.1-28.94,24.42-14.08s.03.01.05.01c.08,0,.16-.02.23-.06.14-.08.22-.23.23-.39.03-.08.03-.17,0-.26v-28.27l49.86,28.79ZM837.61,528.4v-28.25s24.45,14.12,24.45,14.12v28.24l-24.45-14.12ZM761.39,543.61l25.16-14.53h0s0,0,0,0c.02-.01.03-.03.04-.04.03-.02.05-.04.07-.06.02-.02.03-.03.04-.05,0,0,.01,0,.02-.02,0,0,0-.02,0-.03,0-.02.02-.04.02-.05,0-.02.01-.04.02-.06,0-.02,0-.04,0-.06,0,0,0-.02,0-.03v-28.52s24.46,14.12,24.46,14.12v28.71l-49.86,28.87v-28.25ZM660.26,484.67l74.79-43.18v28.25l-50.32,29.06-24.47-14.13ZM735.99,441.49l24.56,14.18c.08.1.19.17.32.18l50.38,29.09v28.24l-50.14-28.95s0,0-.01,0l-25.11-14.5v-28.25ZM634.85,411.35l23.99-13.85v27.71s-23.99-13.85-23.99-13.85ZM659.8,454.49v-28.21s24.93-14.39,24.93-14.39l24.46,14.12-49.38,28.48ZM709.65,425.19l-24.45-14.12v-28.25s24.45,14.12,24.45,14.12v28.25ZM659.79,367.08v-28.25l125.59,72.51-24.46,14.13-101.14-58.39ZM684.25,351.87l-23.99-13.85,23.99-13.85v27.7ZM761.39,426.28l24.46-14.12v57.04l-24.46-14.12v-28.79ZM837.13,411.88l24.93,14.38v28.27l-49.39-28.52,24.46-14.12ZM812.03,337.65s-.07-.04-.1-.06l-25.14-14.51v-57.58s24.47,14.13,24.47,14.13v29.03s0,.02,0,.03c0,.02,0,.04,0,.06,0,.02,0,.04.02.06,0,.02.01.04.02.06,0,0,0,.02,0,.03,0,0,.01,0,.02.02.01.02.02.04.04.05.02.02.05.04.07.06.02.01.03.03.04.04h0s0,0,0,0l75.5,43.61-24.46,14.12-50.5-29.15ZM761.39,338.83l24.46,14.11v28.26s-24.46-14.12-24.46-14.12v-28.25ZM786.55,352c-.07-.04-.14-.07-.23-.07s-.16.03-.23.07l-24.23-13.98,24.46-14.12,24.46,14.12-24.23,13.98ZM812.2,279.63l24.45-14.13v28.24s-24.46,14.1-24.46,14.1v-28.22ZM836.65,264.41l-24.92,14.4-24.47-14.13,49.39-28.51v28.24ZM837.57,441.48l24.49,14.14v57.58l-24.46-14.13-.02-57.59ZM761.39,513.67v-28.19l24.46,14.12v28.25s-24.46-14.18-24.46-14.18ZM812.19,514.06s0,0,0-.01v-87.23l24.44,14.11.04,87.66s0,.06,0,.1v28.44s-24.48-14.07-24.48-14.07v-29ZM863,426.09c.01-.07.02-.14,0-.2v-58.27l24.46-14.12v87.06c-.02.08-.02.16,0,.24v29.07c-.03.09-.03.18,0,.27v58.26l-24.46,14.12v-116.43ZM888.4,441.49l24.46,14.11v28.26s-24.46-14.12-24.46-14.12v-28.25ZM913.8,455.32v-57.83s24.46,14.11,24.46,14.11v58.14s-24.46,14.12-24.46,14.12v-28.45s0-.06,0-.09ZM837.12,322.79l-24.46-14.13,24.36-14.05,24.47,14.13-24.36,14.05ZM787.26,382.01l24.46-14.12,24.46,14.12-24.46,14.12-24.46-14.13ZM709.65,366.53l-24.46-14.12v-58.01l24.46-14.23v86.36ZM583.58,440.94l24.46-14.12v28.25s-24.46,14.12-24.46,14.12v-28.25ZM633.45,323.62v58.01l-24.47,14.12v-86.26l24.47,14.13ZM608.04,395.75l-49.85-28.68v-28.24s49.85,28.78,49.85,28.78v28.13ZM634.39,322.54v-27.7l23.97,13.85-23.97,13.86ZM557.82,397.29l49.75,28.72-24.46,14.12-49.76-28.73,24.47-14.12ZM608.51,455.88l50.57,29.19s0,0,.01,0l25.4,14.66s.01,0,.02.01l24.68,14.25-24.47,14.13-100.66-58.12,24.46-14.12ZM684.24,528.94v28.75l-24.9,14.41-24.94-14.4v-28.67l25-14.43,24.83,14.34ZM709.65,571.85l-24.46-14.12v-28.79l24.47-14.13v57.04ZM634.41,558.79l24.47,14.13v28.25s-24.47-14.12-24.47-14.12v-28.25ZM659.82,572.91l24.86-14.39,24.5,14.14-49.36,28.5v-28.25ZM658.47,514.06l-24.53,14.16-24.46-14.12,24.53-14.16,24.46,14.12ZM608.07,572.38l-49.89,28.8v-28.22l49.9-28.83v28.25ZM609.01,572.61s0-.02,0-.03v-29.31s0-.01,0-.02v-28.34s24.46,14.12,24.46,14.12v116.12s-24.46-14.12-24.46-14.12v-58.43ZM760.97,514.51l24.41,14.15-24.46,14.12-24.48-14.16,24.54-14.12ZM811.65,543.84l24.56,14.11-49.89,28.84-24.46-14.12,49.79-28.83ZM1090.1,499.39l-24.33,14.05-24.46-14.12,24.33-14.05,24.46,14.12ZM1116.07,514.39v28.75l-24.9,14.41-24.93-14.39v-28.9s24.8-14.32,24.8-14.32l25.03,14.45ZM1141.47,557.3l-24.46-14.12v-28.79l24.47-14.13v57.04ZM990,558.4l49.9-28.83v28.25s-49.9,28.8-49.9,28.8v-28.22ZM1039.43,499.32l-23.98,13.84v-27.7s23.98,13.86,23.98,13.86ZM887.47,587.61l.03,57.54-24.47-14.12v-57.52s24.44,14.09,24.44,14.09ZM837.63,646.24l24.93-14.4,24.47,14.12-49.4,28.52v-28.25ZM887.92,586.78l-24.48-14.12,49.89-28.79,24.41,14.14-49.82,28.77ZM913.8,543.06v-28.24s24.45,14.11,24.45,14.11v28.3l-24.45-14.17ZM938.72,528.11l-24.45-14.11,49.86-28.79,24.46,14.12-49.88,28.78ZM964.6,631.05v-28.92c.04-.11.04-.23,0-.34v-29c.03-.1.03-.2,0-.3v-58.23s24.47-14.12,24.47-14.12v57.75c-.12.15-.14.36-.04.53.01.02.03.03.04.04v86.7s-24.46-14.12-24.46-14.12ZM1039.9,558.91v57.04s-49.41-28.52-49.41-28.52l49.41-28.52ZM1040.84,500.13l24.46,14.12v58.45s0,0,0,0v57.9s-24.47-14.12-24.47-14.12v-116.36ZM1066.24,544.24l24.46,14.12v28.25s-24.46-14.12-24.46-14.12v-28.25ZM1091.64,558.36l24.86-14.39,24.5,14.14-49.36,28.5v-28.25ZM1039.87,440.52l-24.46,14.12v-28.25l24.46-14.12v28.25ZM1014.94,425.58l-49.96-28.84,24.47-14.12,49.95,28.84-24.46,14.12ZM989.07,323.3c-.04.11-.04.22,0,.32v29.11s0,.04,0,.06v28.97s-50.34,29.04-50.34,29.04l-24.47-14.11,24.69-14.25s.02-.01.03-.02l25.17-14.53c.25-.01.45-.21.45-.47v-87.11c2.8,1.62,13.6,7.85,24.46,14.12v28.88ZM963.66,337.32l-24.49-14.14c-.06-.18-.23-.32-.44-.32-.03,0-.06.01-.08.02l-24.88-14.36c-.06-.18-.23-.32-.44-.32-.03,0-.05.01-.08.02l-50.25-29.01v-28.24s100.67,58.11,100.67,58.11v28.25ZM913.8,279.2v-116.36s24.46,14.12,24.46,14.12v116.36s-24.46-14.12-24.46-14.12ZM939.2,206.95l24.46,14.12v28.25s-24.46-14.12-24.46-14.12v-28.25ZM964.6,221.08l24.88-14.4,24.5,14.14-49.38,28.51v-28.25ZM1014.42,219.98l-24.46-14.12v-28.79l24.47-14.13v57.04ZM912.86,220.54l-49.86,28.78v-28.22l49.86-28.81v28.25ZM862.06,162.95v57.63c-.14.15-.18.37-.08.56.02.03.05.05.08.08v28.84s0,.05,0,.08c0,.03,0,.05,0,.08v57.76s-24.46-14.12-24.46-14.12v-29.17s0-.06,0-.09v-87.54s24.47-14.12,24.47-14.12ZM811.71,190.92l-24.45-14.11,49.86-28.79,24.46,14.12-49.88,28.78ZM786.32,206.68l24.41,14.14-49.8,28.75s-.03,0-.04,0h0s-.01,0-.02,0l-24.44-14.1,49.89-28.79ZM760.43,250.39l.03,57.47-24.47-14.12v-57.44s24.44,14.09,24.44,14.09ZM735.52,294.56l24.47,14.12-49.4,28.52v-28.25l24.93-14.4ZM608.51,250.68l24.46,14.12-24.41,14.09c-.09,0-.18,0-.27.05l-24.75,14.3v-28.16l24.96-14.41ZM531.84,351.87l-100.67-58.12v-28.24s49.9,28.8,49.9,28.8c.07.17.24.3.44.3.02,0,.04,0,.06-.01l24.91,14.38c.07.17.24.28.43.28.02,0,.03,0,.05,0l24.89,14.37v28.25ZM481.97,293.75v-58.42s0-.02,0-.04v-29.3s0-.02,0-.02v-28.34s24.46,14.12,24.46,14.12v116.12s-24.46-14.12-24.46-14.12ZM507.37,221.5l24.47,14.13v28.25s-24.47-14.12-24.47-14.12v-28.25ZM532.78,235.63l24.8-14.36,24.5,14.14-49.3,28.46v-28.25ZM582.64,234.66l-24.46-14.12v-28.79l24.47-14.13v57.04ZM557.24,220.38l-24.93,14.43-24.93-14.4v-28.67s24.94-14.4,24.94-14.4l24.92,14.39v28.64ZM481.03,235.09l-49.86,28.78v-28.22l49.86-28.81v28.25ZM404.82,279.2l-24.92,14.4-24.47-14.13,49.39-28.51v28.24ZM379.82,558.62l24.56,14.11-49.89,28.84-24.46-14.12,49.79-28.83ZM607.6,514.1l-23.98,13.84v-27.7s23.98,13.86,23.98,13.86ZM455.64,602.39l.03,57.55-24.47-14.12v-57.52s24.44,14.09,24.44,14.09ZM405.8,661.03l24.93-14.4,24.47,14.12-49.4,28.52v-28.25ZM456.09,601.57l-24.48-14.12,49.89-28.79,24.41,14.14-49.82,28.77ZM481.97,557.84v-28.24s24.45,14.11,24.45,14.11v28.3l-24.45-14.17ZM506.89,542.9l-24.45-14.11,49.86-28.79,24.46,14.12-49.88,28.78ZM557.24,514.93v57.52c-.12.15-.14.35-.04.53.01.02.03.03.04.04v86.94s-24.46-14.12-24.46-14.12v-28.92c.04-.11.04-.22,0-.34v-29c.03-.1.03-.2,0-.3v-58.23s24.47-14.12,24.47-14.12ZM507.41,631.7l24.42-14.11v28.24s-24.43,14.09-24.43,14.09v-28.22ZM531.83,616.5l-24.89,14.38-24.47-14.13,49.36-28.49v28.24ZM558.18,602.78l49.93,28.82c.07.18.24.3.44.3.02,0,.04,0,.06-.01l24.91,14.38c.07.17.24.28.43.28.02,0,.03,0,.05,0l24.89,14.37v28.25l-100.7-58.14v-28.24ZM633.47,675.57v28.79s-24.46,14.28-24.46,14.28v-57.19s24.46,14.12,24.46,14.12ZM634.41,704.36v-28.25s24.47,14.12,24.47,14.12v28.37l-24.47-14.24ZM735.99,587.06l-.02-57.61,24.48,14.16v29.06s0,.02,0,.03c0,.02,0,.04,0,.06,0,.02,0,.04.02.06,0,.02.01.04.02.06,0,0,0,.02,0,.03,0,0,.01,0,.02.02.01.02.02.04.04.05.02.02.05.04.07.06.02.01.03.03.04.04h0s50.8,29.33,50.8,29.33c.07.04.15.06.23.06.03,0,.06-.02.09-.02l24.41,14.2-24.5,14.15-75.73-43.73ZM811.29,689.15l-23.99-13.85,23.99-13.85v27.7ZM888.43,763.56l24.46-14.12v57.04l-24.46-14.12v-28.79ZM912.89,718.49l-24.46-14.12v-28.25l24.46,14.11v28.26ZM914.3,719.3l24.46-14.12,24.46,14.12-24.46,14.12-24.46-14.13ZM913.59,689.28c-.07-.04-.14-.07-.23-.07s-.16.03-.23.07l-24.23-13.98,24.46-14.12,24.46,14.12-24.23,13.98ZM963.66,573.48v28.24s-24.89,14.38-24.89,14.38l-24.47-14.13,49.36-28.49ZM990,588.23l100.7,58.13v28.25l-24.49-14.14c-.06-.18-.23-.32-.44-.32-.03,0-.06.01-.08.02l-24.88-14.36c-.06-.18-.23-.32-.44-.32-.03,0-.05.01-.08.02l-50.28-29.03v-28.24ZM1065.3,661.02v28.55s-24.46,14.28-24.46,14.28v-56.96s24.46,14.12,24.46,14.12ZM1066.21,307.98v-27.7l23.97,13.85-23.97,13.86ZM1066.67,396.8l23.99-13.85v27.71s-23.99-13.85-23.99-13.85ZM1091.62,439.93v-28.21s24.93-14.39,24.93-14.39l24.46,14.12-49.39,28.48ZM1141.47,410.64l-24.45-14.12v-28.25s24.45,14.12,24.45,14.12v28.24ZM1092.08,323.46l23.99-13.85v27.7l-23.99-13.85ZM912.82,103.2l-24.46,14.12v-28.25l24.46-14.12v28.25ZM912.39,162.03l-23.98,13.84v-27.7s23.98,13.86,23.98,13.86ZM760.45,103.36c-.02.08-.02.16,0,.24v29.07c-.03.09-.03.18,0,.27v58.26l-24.46,14.12v-116.43c.01-.07.02-.14,0-.2V30.42l24.46-14.12v87.06ZM735.05,176l-24.46-14.13-.02-57.59,24.49,14.14v57.58ZM709.62,103.74l.04,87.66s0,.06,0,.09v28.45s-24.48-14.07-24.48-14.07v-29s0,0,0,0v-87.24l24.44,14.11ZM684.24,205.78l-49.86,28.87v-28.25l25.16-14.53h0s.03-.03.04-.04c.03-.02.05-.04.07-.06.01-.02.03-.03.04-.05,0,0,.01,0,.02-.02,0,0,0-.02,0-.03,0-.02.02-.04.02-.06,0-.02.01-.04.02-.06,0-.02,0-.04,0-.06,0-.01,0-.02,0-.03v-28.52s24.46,14.12,24.46,14.12v28.71ZM481.03,117.87l-24.46,14.12v-28.25l24.46-14.12v28.25ZM480.56,176.82l-23.98,13.84v-27.7s23.98,13.86,23.98,13.86ZM303.22,220.11l-24.45-14.12v-28.25s24.45,14.13,24.45,14.13v28.24ZM328.62,118.14c-.02.08-.02.17,0,.25v29.07c-.03.09-.03.18,0,.27v58.26l-24.46,14.12v-116.43c.01-.07.02-.14,0-.2v-58.27l24.46-14.12v87.06ZM303.22,190.78l-24.46-14.13-.02-57.59,24.49,14.14v57.58ZM277.8,118.52l.04,87.66s0,.06,0,.1v28.44s-24.48-14.07-24.48-14.07v-29s0,0,0,0v-87.24l24.44,14.11ZM252.81,221.42l24.56,14.11-49.92,28.86-24.43-14.14,49.79-28.83ZM355.44,396.8l24.46-14.12,24.46,14.12-24.46,14.12-24.46-14.13ZM379.42,529.05v28.71l-49.86,28.87v-28.25l25.16-14.53h0s.03-.03.04-.04c.03-.02.05-.04.07-.06.01-.02.03-.03.04-.05,0,0,.01,0,.02-.02,0,0,0-.02,0-.03,0-.02.02-.04.02-.06,0-.02.01-.04.02-.06,0-.02,0-.04,0-.06,0-.01,0-.02,0-.03v-28.52s24.46,14.12,24.46,14.12ZM304.14,544.23l24.48,14.16v29.06s0,.02,0,.03c0,.02,0,.04,0,.06,0,.02,0,.04.02.06,0,.02.01.04.02.06,0,0,0,.02,0,.03,0,0,.01,0,.02.02.01.02.02.04.04.05.02.02.05.04.07.06.02.01.03.03.04.04l50.8,29.33c.07.04.15.06.23.06.03,0,.06-.02.09-.02l24.41,14.2-24.5,14.15-75.73-43.73-.02-57.61ZM380.4,646.36l24.46-14.12v86.37l-24.46-14.12v-58.12ZM482.48,734.08l24.46-14.12,24.46,14.12-24.46,14.12-24.46-14.13ZM507.88,778.08l24.46-14.12,24.93,14.38v28.27l-49.39-28.52ZM456.6,895.68l25.16-14.53h0s.03-.03.04-.04c.03-.02.05-.04.07-.06.01-.02.03-.03.04-.05,0,0,.01,0,.02-.02,0,0,0-.02,0-.03,0-.02.02-.04.02-.06,0-.02.01-.04.02-.06,0-.02,0-.04,0-.06,0-.01,0-.02,0-.03v-28.52s24.46,14.12,24.46,14.12v28.71l-49.86,28.87v-28.25ZM507.4,866.13s0,0,0,0v-87.24l24.44,14.11.04,87.66s0,.06,0,.09v28.45s-24.48-14.07-24.48-14.07v-29ZM532.78,793.55l24.49,14.14v57.58l-24.46-14.13-.02-57.59ZM557.74,718.87l-50.5-29.15s-.06-.04-.1-.06l-25.14-14.51v-57.58s24.47,14.13,24.47,14.13v29.03s0,.02,0,.03c0,.02,0,.04,0,.06,0,.02,0,.04.02.06,0,.02.01.04.02.06,0,0,0,.02,0,.03,0,0,.01,0,.02.02.01.02.02.04.04.05.02.02.05.04.07.06.02.01.03.03.04.04h0s0,0,0,0l75.5,43.61-24.46,14.12ZM583.6,704.71c0-.06-.02-.11-.04-.16,0-.02-.02-.04-.03-.05-.04-.06-.09-.11-.15-.15,0,0,0,0,0,0,0,0,0,0,0,0l-50.1-28.94,24.65-14.22s.01,0,.02,0c0,0,0-.01.01-.01l.04-.02c.22-.12.29-.39.18-.61v-28.43l49.89,28.8v58.55s.01.03.01.04c0,.06.02.11.04.16,0,.02.02.04.03.05.04.06.09.12.16.16l24.7,14.22-24.7,14.26c-.07.04-.12.09-.16.16-.01.02-.02.04-.03.05-.02.05-.04.1-.04.16,0,.01-.01.02-.01.04v57.84s-24.46-14.11-24.46-14.11v-87.73s0-.03-.01-.04ZM761.42,659.82v-27.7l23.97,13.85-23.97,13.86ZM888.43,880.89l25.16-14.53h0s0,0,0,0c.02-.01.03-.03.04-.04.03-.02.05-.04.07-.06.01-.02.03-.03.04-.05,0,0,.01,0,.02-.02,0,0,0-.02,0-.03,0-.02.02-.04.02-.06,0-.02.01-.04.02-.06,0-.02,0-.04,0-.06,0-.01,0-.02,0-.03v-28.52s24.46,14.12,24.46,14.12v28.71l-49.86,28.87v-28.25ZM939.23,851.35s0,0,0,0v-87.24l24.44,14.11.03,87.66s0,.06,0,.09v28.45s-24.48-14.07-24.48-14.07v-29ZM964.61,778.76l24.49,14.14v57.58l-24.46-14.13-.02-57.59ZM989.57,704.09l-50.5-29.15s-.06-.04-.1-.06l-25.14-14.51v-57.58s24.47,14.13,24.47,14.13v29.03s0,.02,0,.03c0,.02,0,.04,0,.06,0,.02,0,.04.02.06,0,.02.01.04.02.06,0,0,0,.02,0,.03,0,0,.01,0,.02.02.01.02.02.04.04.05.02.02.05.04.07.06.02.01.03.03.04.04h0s0,0,0,0l75.5,43.61-24.46,14.12ZM1015.43,689.93c0-.06-.02-.11-.04-.16,0-.02-.02-.04-.03-.05-.04-.06-.09-.11-.15-.15,0,0,0,0,0,0,0,0,0,0,0,0l-50.1-28.94,24.65-14.22s.01,0,.02,0c0,0,0-.01.01-.01l.04-.02c.22-.12.29-.39.18-.61v-28.19s49.89,28.8,49.89,28.8v58.32s.01.03.01.04c0,.06.02.11.04.16,0,.02.02.04.03.05.04.06.09.12.16.16l24.7,14.22-24.7,14.26c-.07.04-.12.09-.16.16-.01.02-.02.04-.03.05-.02.05-.04.1-.04.16,0,.01-.01.02-.01.04v57.84s-24.46-14.11-24.46-14.11v-87.73s0-.03-.01-.04ZM1092.11,616.78l24.47-14.15,24.8,14.33s.06.01.09.02v28.28c-5.78-3.34-43.72-25.23-49.36-28.48ZM1167.09,601.71s0,0-.02.01l-24.66,14.25v-28.27l24.93-14.39,24.46,14.12-24.71,14.27ZM1193.68,558.11l49.79-28.83,24.56,14.11-49.89,28.84-24.46-14.12ZM1268.49,514.04s0,.06,0,.1v28.44s-24.48-14.07-24.48-14.07v-29s0,0,0,0v-87.24l24.44,14.11.04,87.66ZM1243.07,498.63l-50.14-28.95s0,0,0,0l-25.11-14.5v-28.25l24.56,14.18c.08.1.19.17.32.18l50.38,29.09v28.24ZM1193.21,440.52v-28.79l24.46-14.13v57.04l-24.46-14.12ZM1117.01,337.86v-58.12l24.41-14.02v86.23l-24.41-14.1ZM1167.81,279.19v-57.54s24.44,14.09,24.44,14.09l.03,57.57-24.47-14.12ZM1218.57,162.94l24.45,14.11v28.3l-24.45-14.17v-28.24ZM1293.84,293.31l-24.47-14.12v-28.86c.06-.12.06-.27,0-.4v-28.94c.05-.11.05-.24,0-.36v-58.23s24.47-14.12,24.47-14.12v145.03ZM1244.02,265.08l24.41-14.1v28.24s-24.42,14.08-24.42,14.08v-28.22ZM1193.21,324.28l24.46,14.11v28.26s-24.46-14.12-24.46-14.12v-28.25ZM1243.54,353.34l24.46,14.12-24.46,14.12-24.46-14.13,24.46-14.12ZM1218.37,337.45c-.07-.04-.14-.07-.23-.07s-.16.03-.23.07l-24.23-13.98,24.46-14.12,24.46,14.12-24.23,13.98ZM1219.09,250.14l49.34-28.49v28.24s-24.88,14.38-24.88,14.38l-24.47-14.13ZM1268.91,133.34l24.46,14.12-49.88,28.78-24.45-14.11,49.86-28.79ZM1218.1,192l24.41,14.14-49.82,28.77-24.48-14.12,49.89-28.79ZM1167.34,280.01l24.47,14.12-49.45,28.55v-28.25l24.98-14.43ZM1066.63,220.8l49.79-28.83,24.56,14.11-49.92,28.86-24.43-14.14ZM1142.37,148.28l24.46,14.12v28.24l-24.45-14.12v-28.25ZM1167.77,190.65v-116.43c.01-.07.02-.14,0-.2V15.75l24.46-14.12v87.06c-.02.08-.02.16,0,.24v29.07c-.03.09-.03.18,0,.27v58.26l-24.46,14.12ZM1243.03,117.87l-24.46,14.12v-28.45s0-.06,0-.09v-57.83s24.46,14.11,24.46,14.11v58.14ZM1268.48,14.69l-24.5-14.27v-28.19s24.5,14.15,24.5,14.15V14.69ZM1243.03-28.31V.42s-24.46,14.28-24.46,14.28v-57.14s24.46,14.12,24.46,14.12ZM1219.04,15.52l24.47-14.28,24.46,14.24-24.46,14.12-24.47-14.08ZM1217.63,103.73v28.26s-24.46-14.12-24.46-14.12v-28.25l24.46,14.11ZM1116.02-43.21s0,.02,0,.03c0,.02,0,.04,0,.06,0,.02,0,.04.02.06,0,.02.01.04.02.06,0,0,0,.02,0,.03,0,0,.01,0,.02.02.01.02.02.04.04.05.02.02.05.04.07.06.02.01.03.03.04.04h0s0,0,0,0L1191.76.81l-24.46,14.12-50.5-29.15s-.07-.04-.1-.06l-25.14-14.51v-57.58s24.47,14.13,24.47,14.13v29.03ZM1066.16-13.04l24.46,14.11v28.26s-24.46-14.12-24.46-14.12V-13.04ZM1116.49,16.02l24.46,14.12-24.46,14.12-24.46-14.13,24.46-14.12ZM1091.32.13c-.07-.04-.14-.07-.23-.07s-.16.03-.23.07l-24.23-13.98,24.46-14.12,24.46,14.12-24.23,13.98ZM1166.83,102.66l-49.39-28.52,24.46-14.12,24.93,14.38v28.27ZM1116.02,161.31l-50.14-28.95s0,0-.01,0l-25.11-14.5v-28.25l24.56,14.18c.08.1.19.17.32.18l50.38,29.09v28.24ZM989.02,0l-23.99-13.85,23.99-13.85V0ZM964.56-13.04l125.59,72.51-24.46,14.13-101.14-58.39V-13.04ZM964.56,74.41l24.94-14.39,24.46,14.12-49.38,28.48v-28.21ZM963.62,45.63v27.71s-23.99-13.85-23.99-13.85l23.99-13.85ZM1014.42,73.32l-24.45-14.12v-28.25s24.45,14.12,24.45,14.12v28.25ZM1066.16,74.41l24.46-14.12v57.04l-24.46-14.12v-28.79ZM1039.82,89.62v28.25l-50.32,29.06-24.47-14.13,74.79-43.18ZM887.88,88.26l-49.83-28.77,24.47-14.12,49.83,28.76-24.46,14.12ZM913.75,43.88V-42.38l24.47,14.13V29.76l-24.47,14.12ZM939.16-57.04l23.97,13.85-23.97,13.86v-27.7ZM912.81,15.75v28.13l-49.85-28.68V-13.03s49.85,28.78,49.85,28.78ZM862.02-14.02c-.04.11-.04.22,0,.32V15.41s0,.04,0,.06v29.11s-25.03,14.44-25.03,14.44c-.1.02-.18.07-.25.15l-25.02,14.43-24.47-14.11,24.69-14.25s.02-.01.03-.02l25.38-14.66c.15-.08.23-.24.23-.41,0-.05-.02-.1-.04-.15V-57.02c2.8,1.62,13.6,7.85,24.46,14.12V-14.02ZM887.38-57.62v28.28c-5.78-3.34-43.72-25.23-49.36-28.48l24.47-14.15,24.8,14.33s.06.01.09.02ZM836.61,29.31l-24.42-14.22V-13.01s24.42,14.1,24.42,14.1v28.23ZM811.25-13.56V15.09s-24.46,14.28-24.46,14.28V-27.68s24.46,14.12,24.46,14.12ZM787.26,30.19l24.47-14.28,24.46,14.24-24.46,14.12-24.47-14.08ZM785.85,118.4v28.26s-24.46-14.12-24.46-14.12v-28.25l24.46,14.11ZM684.24-28.54s0,.02,0,.03c0,.02,0,.04,0,.06,0,.02,0,.04.02.06,0,.02.01.04.02.06,0,0,0,.02,0,.03,0,0,.01,0,.02.02.01.02.02.04.04.05.02.02.05.04.07.06.02.01.03.03.04.04h0s0,0,0,0l75.5,43.61-24.46,14.12L685.02.45s-.07-.04-.1-.06l-25.14-14.51v-57.58s24.47,14.13,24.47,14.13v29.03ZM634.38,1.63l24.46,14.11v28.26s-24.46-14.12-24.46-14.12V1.63ZM684.71,30.69l24.46,14.12-24.46,14.12-24.46-14.13,24.46-14.12ZM659.54,14.8c-.07-.04-.14-.07-.23-.07s-.16.03-.23.07l-24.23-13.98,24.46-14.12,24.46,14.12-24.23,13.98ZM735.05,117.33l-49.39-28.52,24.46-14.12,24.93,14.38v28.27ZM684.24,175.99l-50.14-28.95s0,0-.01,0l-25.11-14.5v-28.25l24.56,14.18c.08.1.19.17.32.18l50.38,29.09v28.24ZM557.24,14.67l-23.99-13.85,23.99-13.85V14.67ZM532.78,1.63l125.59,72.51-24.46,14.13-101.14-58.39V1.63ZM532.78,89.08l24.94-14.39,24.46,14.12-49.38,28.48v-28.21ZM531.84,60.3v27.71s-23.99-13.85-23.99-13.85l23.99-13.85ZM582.64,88l-24.45-14.12v-28.25s24.45,14.12,24.45,14.12v28.24ZM634.38,89.08l24.46-14.12v57.04l-24.46-14.12v-28.79ZM608.04,104.29v28.25l-50.32,29.06-24.47-14.13,74.79-43.18ZM480.57,88.81l-24.46,14.12-49.76-28.73,24.47-14.12,49.75,28.72ZM481.97,58.56V-27.7l24.47,14.13v58.01l-24.47,14.12ZM507.38-42.36l23.97,13.85-23.97,13.86v-27.7ZM481.03,30.42v28.13l-49.85-28.68V1.64s49.85,28.78,49.85,28.78ZM430.24.65c-.04.11-.04.22,0,.32v29.11s0,.04,0,.06v29.2s-24.87,14.35-24.87,14.35c-.19-.03-.38.06-.48.23-.01.02-.01.04-.02.06l-24.98,14.41-24.47-14.11,24.69-14.25s.02-.01.03-.02l25.38-14.66c.15-.08.23-.24.23-.41,0-.02-.01-.04-.02-.06,0-.04.02-.07.02-.11V-42.34c2.8,1.62,13.6,7.85,24.46,14.11V.65ZM455.6-42.95V-14.67c-5.78-3.34-43.72-25.23-49.36-28.48l24.47-14.15,24.8,14.33s.06.01.09.02ZM404.83,44.12l-24.47-14.24V1.63s24.47,14.12,24.47,14.12v28.37ZM379.43,1.09v28.79s-24.46,14.28-24.46,14.28V-13.03s24.46,14.12,24.46,14.12ZM355.43,44.97l24.47-14.28,24.46,14.24-24.46,14.12-24.47-14.08ZM354.03,133.19v28.26s-24.46-14.12-24.46-14.12v-28.25l24.46,14.11ZM252.42-13.75s0,.02,0,.03c0,.02,0,.04,0,.06,0,.02,0,.04.02.06,0,.02.01.04.02.06,0,0,0,.02,0,.03,0,0,.01,0,.02.02.01.02.02.04.04.05.02.02.05.04.07.06.02.01.03.03.04.04h0s0,0,0,0l75.5,43.61-24.46,14.12-50.5-29.15s-.07-.04-.1-.06L227.95.67v-57.58s24.47,14.13,24.47,14.13V-13.75ZM202.56,16.42l24.46,14.11v28.26s-24.46-14.12-24.46-14.12v-28.25ZM252.89,45.48l24.46,14.12-24.46,14.12-24.46-14.13,24.46-14.12ZM227.71,29.59c-.07-.04-.14-.07-.23-.07s-.16.03-.23.07l-24.23-13.98,24.46-14.12,24.46,14.12-24.23,13.98ZM303.22,132.12l-49.39-28.52,24.46-14.12,24.93,14.38v28.27ZM125.89,176.39l-24.47-14.13,74.79-43.18v28.25l-50.32,29.07ZM177.15,147.32v-28.25l75.26,43.46v28.24l-75.26-43.45ZM101.42,308.83l24.47-14.15,24.8,14.33s.06.01.09.02v28.28c-5.78-3.34-43.72-25.23-49.36-28.48ZM176.73,293.68c-.09,0-.19,0-.27.05l-24.74,14.3v-28.16l24.96-14.41,24.46,14.12-24.41,14.09ZM252.42,366.65l-23.99-13.85,23.99-13.85v27.7ZM227.96,353.61l49.87,28.79c.02.24.22.42.46.42.07,0,.14-.02.2-.05l75.07,43.34-24.46,14.13-101.14-58.39v-28.25ZM227.96,441.06l24.94-14.39,24.46,14.12-49.38,28.48v-28.21ZM277.82,439.98l-24.45-14.12v-28.25s24.45,14.12,24.45,14.12v28.24ZM329.56,441.06l24.46-14.13v57.04l-24.46-14.12v-28.79ZM176.69,470.67l50.57,29.19s0,0,.01,0l25.4,14.66s.01,0,.02.01l24.68,14.25-24.47,14.13-24.92-14.39s-.02-.07-.03-.1c-.11-.18-.32-.26-.52-.21l-24.85-14.35s-.02-.07-.03-.1c-.11-.18-.32-.26-.51-.21l-49.79-28.75,24.46-14.12ZM227.99,587.7l24.86-14.39,24.5,14.14-49.36,28.5v-28.25ZM253.36,572.51v-28.79l24.47-14.13v57.04s-24.47-14.12-24.47-14.12ZM177.19,616.52v-87.05s24.46,14.12,24.46,14.12v87.06s-24.46-14.13-24.46-14.13ZM176.72,645.58l-24.46-14.13,24.44-14.11,24.48,14.12-24.46,14.12ZM202.12,542.77l-24.46-14.12,24.33-14.05,24.46,14.12-24.33,14.05ZM228.43,499.45l74.79-43.18v28.25l-50.32,29.06-24.47-14.13ZM354.02,514.39v28.25s-24.46-14.18-24.46-14.18v-28.19l24.46,14.12ZM379.46,703.94l-23.99-13.85,23.99-13.85v27.7ZM355,690.9l125.59,72.51-24.46,14.13-101.14-58.39v-28.25ZM355,778.35l24.94-14.39,24.46,14.12-49.38,28.48v-28.21ZM354.06,749.57v27.71s-23.99-13.85-23.99-13.85l23.99-13.85ZM404.86,777.26l-24.45-14.12v-28.25s24.45,14.12,24.45,14.12v28.24ZM456.6,778.35l24.46-14.13v57.04l-24.46-14.12v-28.79ZM379.7,851.81s.01,0,.02.01l24.68,14.25-24.47,14.13-100.66-58.12,24.46-14.12,50.57,29.19s0,0,.01,0l25.4,14.66ZM278.79,793.02l24.46-14.12v28.25s-24.46,14.12-24.46,14.12v-28.25ZM304.19,747.82v-86.26l24.47,14.13v58.01l-24.47,14.12ZM329.6,646.9l23.97,13.85-23.97,13.86v-27.7ZM303.25,719.69v28.13l-49.85-28.68v-28.24s49.85,28.78,49.85,28.78ZM202.12,777.41l-24.47-14.11,49.89-28.8c.25-.01.45-.21.45-.47v-87.11l24.46,14.11v28.88c-.03.11-.03.22,0,.32v29.11s0,.04,0,.06v28.97s-50.34,29.04-50.34,29.04ZM252.83,749.24l49.95,28.84-24.46,14.12-49.96-28.84,24.47-14.12ZM380.4,909.8v-28.79l24.47-14.13v57.04s-24.47-14.12-24.47-14.12ZM355.47,836.74l74.79-43.18v28.25l-50.32,29.06-24.47-14.13ZM481.06,851.67v28.25s-24.46-14.18-24.46-14.18v-28.19l24.46,14.12ZM532.81,852.22l24.46,14.13v28.24l-24.45-14.12v-28.25ZM558.21,894.59v-116.43c.01-.07.02-.14,0-.2v-58.27l24.46-14.12v87.06c-.02.08-.02.17,0,.25v29.07c-.03.09-.03.18,0,.27v58.26l-24.46,14.12ZM583.61,793.56l24.46,14.11v28.26s-24.46-14.12-24.46-14.12v-28.25ZM633.47,821.81l-24.46,14.12v-28.45s0-.06,0-.1v-57.82s24.46,14.11,24.46,14.11v58.14ZM684.86,734.57l49.75,28.72-24.46,14.12-49.76-28.73,24.47-14.12ZM812.22,895.02v-28.79l24.47-14.13v57.04s-24.47-14.12-24.47-14.12ZM787.3,821.96l74.79-43.18v28.25l-50.32,29.06-24.47-14.13ZM912.89,836.89v28.25s-24.46-14.18-24.46-14.18v-28.19l24.46,14.12ZM888.89,909.95l49.79-28.83,24.56,14.11-49.89,28.84-24.46-14.12ZM964.63,837.44l24.46,14.12v28.24l-24.45-14.12v-28.25ZM990.04,879.81v-116.43c.01-.07.02-.14,0-.2v-58.27l24.46-14.12v87.06c-.02.08-.02.16,0,.24v29.07c-.03.09-.03.18,0,.27v58.26l-24.46,14.12ZM1015.44,778.78l24.46,14.11v28.26s-24.46-14.12-24.46-14.12v-28.25ZM1065.3,807.03l-24.46,14.12v-28.45s0-.06,0-.09v-57.83s24.46,14.11,24.46,14.11v58.14ZM1116.48,719.91l49.95,28.84-24.46,14.12-49.96-28.84,24.47-14.12ZM1244.05,880.46v-28.79l24.47-14.13v57.04s-24.47-14.12-24.47-14.12ZM1219.12,807.4l74.79-43.18v28.25l-50.32,29.06-24.47-14.13Z" />
        <path class="cls-2"
          d="M176.48,705.19c.07.04.15.06.23.06s.16-.02.24-.06l25.39-14.82c.07-.04.14-.1.18-.18.13-.22.05-.51-.17-.64l-25.41-14.66c-.15-.08-.32-.08-.47,0-.15.08-.23.24-.23.41v29.49c0,.17.09.32.24.41ZM201.19,689.95l-24,14.01v-27.86s24,13.85,24,13.85Z" />
        <path class="cls-2"
          d="M253.16,807.02l-25.39-14.67c-.15-.08-.32-.08-.47,0-.15.08-.23.24-.23.41v29.33c0,.17.09.32.23.41.07.04.15.06.23.06s.16-.02.23-.06l25.39-14.66c.15-.08.23-.24.23-.41,0-.17-.09-.32-.23-.41ZM228,821.27v-27.7s23.98,13.86,23.98,13.86l-23.98,13.84Z" />
        <path class="cls-2"
          d="M202.35,836.23l-50.57-29.2v-87.73c0-.17-.09-.32-.23-.41-.15-.08-.32-.08-.47,0l-25.4,14.67c-.15.08-.23.24-.23.41v57.83l-24.7-14.24s-.04-.01-.05-.02c-.03-.01-.06-.02-.09-.03-.03,0-.06,0-.09,0-.03,0-.06,0-.08,0-.03,0-.06.02-.09.03-.02,0-.04,0-.05.02l-25.4,14.67s-.01.01-.02.02c-.03.02-.05.04-.07.06s-.04.04-.06.07c0,0-.01.01-.02.02-.01.02-.01.04-.02.06-.01.03-.02.06-.03.09,0,.03,0,.06,0,.09,0,.03,0,.06,0,.09,0,.03.02.06.03.09,0,.02,0,.04.02.06,0,0,.01,0,.02.02.04.06.09.12.16.16h0s0,0,0,0l50.56,29.2v87.72c0,.17.09.32.23.41.07.04.15.06.23.06s.16-.02.23-.06l25.4-14.67c.15-.08.23-.24.23-.41v-57.84l24.7,14.25c.07.04.15.06.23.06s.16-.02.23-.06l25.4-14.66c.15-.08.23-.24.23-.41s-.09-.32-.23-.41ZM76.05,792.63l24.46-14.12,24.93,14.38v28.27l-49.39-28.52ZM126.39,909.14v-116.43c.01-.07.02-.14,0-.2v-58.27l24.46-14.12v87.06c-.02.08-.02.16,0,.24v29.07c-.03.09-.03.18,0,.27v58.26l-24.46,14.12ZM176.72,850.75l-24.93-14.39v-28.25l49.39,28.52-24.46,14.12Z" />
        <path class="cls-2"
          d="M684.98,792.34c-.15-.08-.32-.08-.47,0l-25.41,14.67c-.15.08-.23.24-.23.41s.09.32.23.41l25.39,14.65c.07.04.15.06.23.06s.16-.02.23-.06c.15-.08.23-.24.23-.41l.02-29.32c0-.17-.09-.32-.23-.41ZM684.26,821.25l-23.98-13.84,24-13.85-.02,27.69Z" />
        <path class="cls-2"
          d="M684.98,851l-25.4-14.67c-.15-.08-.32-.08-.47,0l-50.8,29.33s-.01.01-.02.02c-.02.01-.03.02-.05.04-.02.01-.03.03-.05.05-.01.02-.03.03-.04.05,0,0-.01.01-.02.02,0,0,0,.02,0,.03,0,.02-.02.04-.02.06,0,.02-.01.04-.02.06,0,.02,0,.04,0,.06,0,.01,0,.02,0,.03v29.06s-50.59,29.2-50.59,29.2c-.15.08-.23.24-.23.41s.09.32.24.41l25.42,14.66c.07.04.15.06.23.06s.16-.02.23-.06l50.67-29.25c.12-.03.23-.09.3-.21.04-.07.06-.15.06-.23,0-.02.01-.03.01-.05v-29.07l50.58-29.18c.15-.08.23-.24.23-.41s-.09-.32-.23-.41ZM633.46,909.3l-24.45-14.17v-28.24s24.45,14.11,24.45,14.11v28.3ZM583.13,938.85l-24.48-14.12,49.89-28.79,24.41,14.14-49.82,28.77ZM633.93,880.18l-24.45-14.11,49.86-28.79,24.46,14.12-49.88,28.78Z" />
      </g>
    </g>
  </g>
</svg>